<?xml version="1.0" encoding="UTF-8" standalone="no"?>
<!DOCTYPE svg PUBLIC "-//W3C//DTD SVG 1.1//EN"
 "http://www.w3.org/Graphics/SVG/1.1/DTD/svg11.dtd">
<!-- Generated by graphviz version 5.0.0 (20220707.1540)
 -->
<!-- Title: dependencies Pages: 1 -->
<svg width="196pt" height="247pt"
 viewBox="0.00 0.00 196.00 246.80" xmlns="http://www.w3.org/2000/svg" xmlns:xlink="http://www.w3.org/1999/xlink">
<g id="graph0" class="graph" transform="scale(1 1) rotate(0) translate(4 242.8)">
<title>dependencies</title>
<polygon fill="white" stroke="transparent" points="-4,4 -4,-242.8 192,-242.8 192,4 -4,4"/>
<text text-anchor="middle" x="94" y="-8.2" font-family="sans-serif" font-size="14.00">dependencies</text>
<g id="clust1" class="cluster">
<title>cluster_FretboardModule</title>
<polygon fill="none" stroke="black" stroke-dasharray="1,5" points="8,-32.8 8,-230.8 180,-230.8 180,-32.8 8,-32.8"/>
</g>
<g id="clust5" class="cluster">
<title>cluster_FretboardModule_exports</title>
<polygon fill="none" stroke="black" points="16,-170.8 16,-222.8 172,-222.8 172,-170.8 16,-170.8"/>
</g>
<g id="clust2" class="cluster">
<title>cluster_FretboardModule_declarations</title>
<polygon fill="none" stroke="black" points="18,-40.8 18,-92.8 170,-92.8 170,-40.8 18,-40.8"/>
</g>
<!-- FretboardComponent -->
<g id="node1" class="node">
<title>FretboardComponent</title>
<polygon fill="#ffffb3" stroke="black" points="161.76,-84.8 26.24,-84.8 26.24,-48.8 161.76,-48.8 161.76,-84.8"/>
<text text-anchor="middle" x="94" y="-62.6" font-family="Times,serif" font-size="14.00">FretboardComponent</text>
</g>
<!-- FretboardModule -->
<g id="node2" class="node">
<title>FretboardModule</title>
<polygon fill="#8dd3c7" stroke="black" points="150.98,-149.8 147.98,-153.8 126.98,-153.8 123.98,-149.8 37.02,-149.8 37.02,-113.8 150.98,-113.8 150.98,-149.8"/>
<text text-anchor="middle" x="94" y="-127.6" font-family="Times,serif" font-size="14.00">FretboardModule</text>
</g>
<!-- FretboardComponent&#45;&gt;FretboardModule -->
<g id="edge1" class="edge">
<title>FretboardComponent&#45;&gt;FretboardModule</title>
<path fill="none" stroke="black" d="M94,-84.91C94,-84.91 94,-103.79 94,-103.79"/>
<polygon fill="black" stroke="black" points="90.5,-103.79 94,-113.79 97.5,-103.79 90.5,-103.79"/>
</g>
<!-- FretboardComponent  -->
<g id="node3" class="node">
<title>FretboardComponent </title>
<polygon fill="#fb8072" stroke="black" points="163.76,-214.8 24.24,-214.8 24.24,-178.8 163.76,-178.8 163.76,-214.8"/>
<text text-anchor="middle" x="94" y="-192.6" font-family="Times,serif" font-size="14.00">FretboardComponent </text>
</g>
<!-- FretboardModule&#45;&gt;FretboardComponent  -->
<g id="edge2" class="edge">
<title>FretboardModule&#45;&gt;FretboardComponent </title>
<path fill="none" stroke="black" stroke-dasharray="5,2" d="M94,-149.91C94,-149.91 94,-168.79 94,-168.79"/>
<polygon fill="black" stroke="black" points="90.5,-168.79 94,-178.79 97.5,-168.79 90.5,-168.79"/>
</g>
</g>
</svg>
