<?xml version="1.0" encoding="UTF-8" standalone="no"?><!DOCTYPE svg PUBLIC "-//W3C//DTD SVG 1.1//EN" "http://www.w3.org/Graphics/SVG/1.1/DTD/svg11.dtd"><svg width="100%" height="100%" viewBox="0 0 70 50" version="1.1" xmlns="http://www.w3.org/2000/svg" xmlns:xlink="http://www.w3.org/1999/xlink" xml:space="preserve" xmlns:serif="http://www.serif.com/" style="fill-rule:evenodd;clip-rule:evenodd;stroke-linejoin:round;stroke-miterlimit:2;"><g><rect x="-35.214" y="-25" width="140.214" height="100.299" style="fill-opacity:0.47;"/><path d="M68.986,-0.5l-1.005,0l-0,1.97c-0,0.545 -0.451,0.987 -1.006,0.987l-2.011,0c-0.555,0 -1.005,-0.442 -1.005,-0.987l-0,-1.97l-1.006,0l0,1.966c0,0.544 -0.45,0.987 -1.005,0.987l-2.011,-0c-0.555,-0 -1.006,-0.443 -1.006,-0.987l0,-1.966l-1.005,0l-0,1.97c-0,0.545 -0.451,0.987 -1.006,0.987l-2.011,0c-0.555,0 -1.005,-0.442 -1.005,-0.987l-0,-1.97l-1.006,0l0,1.966c0,0.544 -0.45,0.987 -1.005,0.987l-2.011,-0c-0.555,-0 -1.006,-0.443 -1.006,-0.987l0,-1.966l-1.005,0l-0,1.974c-0,0.545 -0.451,0.988 -1.006,0.988l-2.011,-0c-0.554,-0 -1.005,-0.443 -1.005,-0.988l-0,-1.974l-1.005,0l-0,1.97c-0,0.545 -0.451,0.987 -1.006,0.987l-2.011,0c-0.555,0 -1.005,-0.442 -1.005,-0.987l-0,-1.97l-1.006,0l0,1.97c0,0.545 -0.45,0.987 -1.005,0.987l-2.011,0c-0.555,0 -1.006,-0.442 -1.006,-0.987l0,-1.97l-1.005,0l-0,1.966c-0,0.544 -0.451,0.987 -1.006,0.987l-2.011,-0c-0.555,-0 -1.005,-0.443 -1.005,-0.987l-0,-1.966l-1.006,0l0,1.974c0,0.545 -0.45,0.988 -1.005,0.988l-2.011,-0c-0.555,-0 -1.006,-0.443 -1.006,-0.988l0,-1.974l-1.005,0l-0,1.97c-0,0.545 -0.451,0.987 -1.006,0.987l-2.011,0c-0.554,0 -1.005,-0.442 -1.005,-0.987l-0,-1.97l-1.006,0l0,1.974c0,0.545 -0.45,0.988 -1.005,0.988l-2.011,-0c-0.555,-0 -1.005,-0.443 -1.005,-0.988l-0,-1.974l-1.006,0l0,1.97c0,0.545 -0.45,0.987 -1.005,0.987l-2.011,0c-0.555,0 -1.006,-0.442 -1.006,-0.987l0,-1.97l-1.005,0c-0,0 -0,1.979 -0,1.979c-0,0.545 -0.451,0.987 -1.006,0.987l-2.011,-0c-0.555,-0 -1.005,-0.442 -1.005,-0.987l-0,-1.979c-0,0 -1.006,0 -1.006,0l0,1.974c0,0.545 -0.45,0.988 -1.005,0.988l-2.011,-0c-0.037,-0 -0.073,-0.002 -0.108,-0.006l0,0.99c0.035,-0.004 0.071,-0.006 0.108,-0.006l2.011,-0c0.555,-0 1.005,0.442 1.005,0.987l0,1.979c0,0.545 -0.45,0.987 -1.005,0.987l-2.011,-0c-0.037,-0 -0.073,-0.002 -0.108,-0.006l0,1.012c0.035,-0.004 0.071,-0.006 0.108,-0.006l2.011,0c0.555,0 1.005,0.443 1.005,0.988l0,1.978c0,0.545 -0.45,0.987 -1.005,0.987l-2.011,0c-0.037,0 -0.073,-0.001 -0.108,-0.005l0,0.99c0.035,-0.004 0.071,-0.006 0.108,-0.006l2.011,-0c0.555,-0 1.005,0.442 1.005,0.987l0,1.979c0,0.545 -0.45,0.987 -1.005,0.987l-2.011,-0c-0.037,-0 -0.073,-0.002 -0.108,-0.006l0,0.972c0.035,-0.003 0.071,-0.005 0.108,-0.005l2.011,-0c0.555,-0 1.005,0.442 1.005,0.987l0,1.979c0,0.544 -0.45,0.987 -1.005,0.987l-2.011,-0c-0.037,-0 -0.073,-0.002 -0.108,-0.006l0,0.99c0.035,-0.004 0.071,-0.006 0.108,-0.006l2.011,0c0.555,0 1.005,0.442 1.005,0.987l0,1.979c0,0.545 -0.45,0.987 -1.005,0.987l-2.011,0c-0.037,0 -0.073,-0.002 -0.108,-0.006l0,1.012c0.035,-0.003 0.071,-0.005 0.108,-0.005l2.011,-0c0.555,-0 1.005,0.442 1.005,0.987l0,1.979c0,0.544 -0.45,0.987 -1.005,0.987l-2.011,-0c-0.037,-0 -0.073,-0.002 -0.108,-0.006l0,0.99c0.035,-0.004 0.071,-0.006 0.108,-0.006l2.011,0c0.555,0 1.005,0.442 1.005,0.987l0,1.979c0,0.545 -0.45,0.987 -1.005,0.987l-2.011,0c-0.037,0 -0.073,-0.002 -0.108,-0.006l0,0.981c0.035,-0.003 0.071,-0.005 0.108,-0.005l2.011,-0c0.555,-0 1.005,0.442 1.005,0.987l0,1.979c0,0.544 -0.45,0.987 -1.005,0.987l-2.011,-0c-0.037,-0 -0.073,-0.002 -0.108,-0.006l0,1.012c0.035,-0.004 0.071,-0.006 0.108,-0.006l2.011,0c0.555,0 1.005,0.443 1.005,0.987l0,1.979c0,0.545 -0.45,0.987 -1.005,0.987l-2.011,0c-0.037,0 -0.073,-0.002 -0.108,-0.005l0,0.989c0.035,-0.003 0.071,-0.005 0.108,-0.005l2.011,-0c0.555,-0 1.005,0.442 1.005,0.987l0,0.156l1.006,0l-0,-0.152c-0,-0.545 0.45,-0.987 1.005,-0.987l2.011,0c0.555,0 1.006,0.442 1.006,0.987l-0,0.152l1.005,0l0,-0.161c0,-0.544 0.451,-0.987 1.006,-0.987l2.011,0c0.555,0 1.005,0.443 1.005,0.987l0,0.161l1.006,0l-0,-0.156c-0,-0.545 0.45,-0.987 1.005,-0.987l2.011,-0c0.555,-0 1.005,0.442 1.005,0.987l0,0.156l1.006,0l-0,-0.161c-0,-0.544 0.451,-0.987 1.005,-0.987l2.011,0c0.555,0 1.006,0.443 1.006,0.987l-0,0.161l1.005,0l0,-0.156c0,-0.545 0.451,-0.987 1.006,-0.987l2.011,-0c0.555,-0 1.005,0.442 1.005,0.987l0,0.156l1.006,0l-0,-0.165c-0,-0.545 0.45,-0.987 1.005,-0.987l2.011,-0c0.555,-0 1.006,0.442 1.006,0.987l-0,0.165l1.005,0l0,-0.161c0,-0.544 0.451,-0.987 1.006,-0.987l2.011,0c0.555,0 1.005,0.443 1.005,0.987l0,0.161l1.006,0l-0,-0.161c-0,-0.544 0.45,-0.987 1.005,-0.987l2.011,0c0.555,0 1.006,0.443 1.006,0.987l-0,0.161l1.005,0l-0,-0.156c-0,-0.545 0.451,-0.987 1.005,-0.987l2.011,-0c0.555,-0 1.006,0.442 1.006,0.987l-0,0.156l1.005,0l0,-0.165c0,-0.545 0.451,-0.987 1.006,-0.987l2.011,-0c0.555,-0 1.005,0.442 1.005,0.987l0,0.165l1.006,0l-0,-0.161c-0,-0.544 0.45,-0.987 1.005,-0.987l2.011,0c0.555,0 1.006,0.443 1.006,0.987l-0,0.161l1.005,0l0,-0.165c0,-0.545 0.451,-0.987 1.006,-0.987l2.011,-0c0.555,-0 1.005,0.442 1.005,0.987l0,0.165l1.006,0l-0,-0.161c-0,-0.544 0.45,-0.987 1.005,-0.987l2.011,0c0.555,0 1.006,0.443 1.006,0.987l-0,0.161l1.005,0l0,-0.161c0,-0.544 0.451,-0.987 1.006,-0.987l-0,-0.978c-0.555,-0 -1.006,-0.442 -1.006,-0.987l0,-1.979c0,-0.545 0.451,-0.987 1.006,-0.987l-0,-1.001c-0.555,0 -1.006,-0.442 -1.006,-0.987l0,-1.979c0,-0.544 0.451,-0.987 1.006,-0.987l-0,-0.969c-0.555,-0 -1.006,-0.443 -1.006,-0.987l0,-1.979c0,-0.545 0.451,-0.987 1.006,-0.987l-0,-0.979c-0.555,0 -1.006,-0.442 -1.006,-0.987l0,-1.979c0,-0.544 0.451,-0.987 1.006,-0.987l-0,-1c-0.555,-0 -1.006,-0.443 -1.006,-0.987l0,-1.979c0,-0.545 0.451,-0.987 1.006,-0.987l-0,-0.979c-0.555,0 -1.006,-0.442 -1.006,-0.987l0,-1.979c0,-0.544 0.451,-0.987 1.006,-0.987l-0,-0.96c-0.555,-0 -1.006,-0.443 -1.006,-0.988l0,-1.978c0,-0.545 0.451,-0.988 1.006,-0.988l-0,-0.978c-0.555,0 -1.006,-0.442 -1.006,-0.987l0,-1.979c0,-0.545 0.451,-0.987 1.006,-0.987l-0,-1c-0.555,-0 -1.006,-0.443 -1.006,-0.988l0,-1.978c0,-0.545 0.451,-0.988 1.006,-0.988l-0,-0.978c-0.555,0 -1.006,-0.442 -1.006,-0.987l0,-1.97Zm-61.334,44.423c-0,-0.545 -0.451,-0.987 -1.006,-0.987l-2.011,-0c-0.555,-0 -1.005,0.442 -1.005,0.987l-0,1.979c-0,0.544 0.45,0.987 1.005,0.987l2.011,-0c0.555,-0 1.006,-0.443 1.006,-0.987l-0,-1.979Zm40.219,-0.005c-0,-0.544 -0.451,-0.987 -1.006,-0.987l-2.011,0c-0.554,0 -1.005,0.443 -1.005,0.987l-0,1.979c-0,0.545 0.451,0.987 1.005,0.987l2.011,0c0.555,0 1.006,-0.442 1.006,-0.987l-0,-1.979Zm-20.11,0c0,-0.544 -0.45,-0.987 -1.005,-0.987l-2.011,0c-0.555,0 -1.006,0.443 -1.006,0.987l0,1.979c0,0.545 0.451,0.987 1.006,0.987l2.011,0c0.555,0 1.005,-0.442 1.005,-0.987l0,-1.979Zm-10.055,0c0,-0.544 -0.45,-0.987 -1.005,-0.987l-2.011,0c-0.555,0 -1.005,0.443 -1.005,0.987l-0,1.979c-0,0.545 0.45,0.987 1.005,0.987l2.011,0c0.555,0 1.005,-0.442 1.005,-0.987l0,-1.979Zm40.22,-0.004c-0,-0.545 -0.451,-0.987 -1.006,-0.987l-2.011,-0c-0.555,-0 -1.005,0.442 -1.005,0.987l-0,1.979c-0,0.545 0.45,0.987 1.005,0.987l2.011,-0c0.555,-0 1.006,-0.442 1.006,-0.987l-0,-1.979Zm-15.082,-0c-0,-0.545 -0.451,-0.987 -1.006,-0.987l-2.011,-0c-0.555,-0 -1.005,0.442 -1.005,0.987l-0,1.979c-0,0.545 0.45,0.987 1.005,0.987l2.011,-0c0.555,-0 1.006,-0.442 1.006,-0.987l-0,-1.979Zm-20.11,-0c-0,-0.545 -0.451,-0.987 -1.006,-0.987l-2.011,-0c-0.554,-0 -1.005,0.442 -1.005,0.987l-0,1.979c-0,0.545 0.451,0.987 1.005,0.987l2.011,-0c0.555,-0 1.006,-0.442 1.006,-0.987l-0,-1.979Zm15.082,-0c0,-0.545 -0.45,-0.987 -1.005,-0.987l-2.011,-0c-0.555,-0 -1.006,0.442 -1.006,0.987l0,1.979c0,0.545 0.451,0.987 1.006,0.987l2.011,-0c0.555,-0 1.005,-0.442 1.005,-0.987l0,-1.979Zm30.165,-0c-0,-0.545 -0.451,-0.987 -1.006,-0.987l-2.011,-0c-0.555,-0 -1.005,0.442 -1.005,0.987l-0,1.979c-0,0.545 0.45,0.987 1.005,0.987l2.011,-0c0.555,-0 1.006,-0.442 1.006,-0.987l-0,-1.979Zm-55.302,-0c0,-0.545 -0.45,-0.987 -1.005,-0.987l-2.011,-0c-0.555,-0 -1.006,0.442 -1.006,0.987l0,1.979c0,0.545 0.451,0.987 1.006,0.987l2.011,-0c0.555,-0 1.005,-0.442 1.005,-0.987l0,-1.979Zm20.11,-0.004c-0,-0.545 -0.451,-0.988 -1.006,-0.988l-2.011,0c-0.555,0 -1.005,0.443 -1.005,0.988l-0,1.978c-0,0.545 0.45,0.987 1.005,0.987l2.011,0c0.555,0 1.006,-0.442 1.006,-0.987l-0,-1.978Zm30.164,-0c0,-0.545 -0.45,-0.988 -1.005,-0.988l-2.011,0c-0.555,0 -1.006,0.443 -1.006,0.988l0,1.978c0,0.545 0.451,0.987 1.006,0.987l2.011,0c0.555,0 1.005,-0.442 1.005,-0.987l0,-1.978Zm-10.055,-0c0,-0.545 -0.45,-0.988 -1.005,-0.988l-2.011,0c-0.555,0 -1.006,0.443 -1.006,0.988l0,1.978c0,0.545 0.451,0.987 1.006,0.987l2.011,0c0.555,0 1.005,-0.442 1.005,-0.987l0,-1.978Zm-45.246,-4.941c-0,-0.545 -0.451,-0.987 -1.006,-0.987l-2.011,0c-0.555,0 -1.005,0.442 -1.005,0.987l-0,1.979c-0,0.545 0.45,0.987 1.005,0.987l2.011,0c0.555,0 1.006,-0.442 1.006,-0.987l-0,-1.979Zm40.219,-0.004c-0,-0.545 -0.451,-0.987 -1.006,-0.987l-2.011,-0c-0.554,-0 -1.005,0.442 -1.005,0.987l-0,1.979c-0,0.544 0.451,0.987 1.005,0.987l2.011,-0c0.555,-0 1.006,-0.443 1.006,-0.987l-0,-1.979Zm-20.11,-0c0,-0.545 -0.45,-0.987 -1.005,-0.987l-2.011,-0c-0.555,-0 -1.006,0.442 -1.006,0.987l0,1.979c0,0.544 0.451,0.987 1.006,0.987l2.011,-0c0.555,-0 1.005,-0.443 1.005,-0.987l0,-1.979Zm-10.055,-0c0,-0.545 -0.45,-0.987 -1.005,-0.987l-2.011,-0c-0.555,-0 -1.005,0.442 -1.005,0.987l-0,1.979c-0,0.544 0.45,0.987 1.005,0.987l2.011,-0c0.555,-0 1.005,-0.443 1.005,-0.987l0,-1.979Zm20.11,-0.005c0,-0.544 -0.45,-0.987 -1.005,-0.987l-2.011,0c-0.555,0 -1.006,0.443 -1.006,0.987l0,1.979c0,0.545 0.451,0.987 1.006,0.987l2.011,0c0.555,0 1.005,-0.442 1.005,-0.987l0,-1.979Zm-15.082,0c-0,-0.544 -0.451,-0.987 -1.006,-0.987l-2.011,0c-0.554,0 -1.005,0.443 -1.005,0.987l-0,1.979c-0,0.545 0.451,0.987 1.005,0.987l2.011,0c0.555,0 1.006,-0.442 1.006,-0.987l-0,-1.979Zm-10.055,0c0,-0.544 -0.45,-0.987 -1.005,-0.987l-2.011,0c-0.555,0 -1.006,0.443 -1.006,0.987l0,1.979c0,0.545 0.451,0.987 1.006,0.987l2.011,0c0.555,0 1.005,-0.442 1.005,-0.987l0,-1.979Zm55.302,0c-0,-0.544 -0.451,-0.987 -1.006,-0.987l-2.011,0c-0.555,0 -1.005,0.443 -1.005,0.987l-0,1.979c-0,0.545 0.45,0.987 1.005,0.987l2.011,0c0.555,0 1.006,-0.442 1.006,-0.987l-0,-1.979Zm-25.137,0c-0,-0.544 -0.451,-0.987 -1.006,-0.987l-2.011,0c-0.555,0 -1.005,0.443 -1.005,0.987l-0,1.979c-0,0.545 0.45,0.987 1.005,0.987l2.011,0c0.555,0 1.006,-0.442 1.006,-0.987l-0,-1.979Zm15.082,0c-0,-0.544 -0.451,-0.987 -1.006,-0.987l-2.011,0c-0.555,0 -1.005,0.443 -1.005,0.987l-0,1.979c-0,0.545 0.45,0.987 1.005,0.987l2.011,0c0.555,0 1.006,-0.442 1.006,-0.987l-0,-1.979Zm5.027,-0.004c0,-0.545 -0.45,-0.987 -1.005,-0.987l-2.011,-0c-0.555,-0 -1.006,0.442 -1.006,0.987l0,1.979c0,0.545 0.451,0.987 1.006,0.987l2.011,-0c0.555,-0 1.005,-0.442 1.005,-0.987l0,-1.979Zm-30.164,0c-0,-0.545 -0.451,-0.987 -1.006,-0.987l-2.011,-0c-0.555,-0 -1.005,0.442 -1.005,0.987l-0,1.979c-0,0.545 0.45,0.987 1.005,0.987l2.011,-0c0.555,-0 1.006,-0.442 1.006,-0.987l-0,-1.979Zm20.109,0c0,-0.545 -0.45,-0.987 -1.005,-0.987l-2.011,-0c-0.555,-0 -1.006,0.442 -1.006,0.987l0,1.979c0,0.545 0.451,0.987 1.006,0.987l2.011,-0c0.555,-0 1.005,-0.442 1.005,-0.987l0,-1.979Zm-45.246,-4.909c-0,-0.545 -0.451,-0.988 -1.006,-0.988l-2.011,0c-0.555,0 -1.005,0.443 -1.005,0.988l-0,1.978c-0,0.545 0.45,0.988 1.005,0.988l2.011,-0c0.555,-0 1.006,-0.443 1.006,-0.988l-0,-1.978Zm40.219,-0.005c-0,-0.545 -0.451,-0.987 -1.006,-0.987l-2.011,0c-0.554,0 -1.005,0.442 -1.005,0.987l-0,1.979c-0,0.545 0.451,0.987 1.005,0.987l2.011,0c0.555,0 1.006,-0.442 1.006,-0.987l-0,-1.979Zm-20.11,0c0,-0.545 -0.45,-0.987 -1.005,-0.987l-2.011,0c-0.555,0 -1.006,0.442 -1.006,0.987l0,1.979c0,0.545 0.451,0.987 1.006,0.987l2.011,0c0.555,0 1.005,-0.442 1.005,-0.987l0,-1.979Zm-10.055,0c0,-0.545 -0.45,-0.987 -1.005,-0.987l-2.011,0c-0.555,0 -1.005,0.442 -1.005,0.987l-0,1.979c-0,0.545 0.45,0.987 1.005,0.987l2.011,0c0.555,0 1.005,-0.442 1.005,-0.987l0,-1.979Zm5.028,-0.004c-0,-0.545 -0.451,-0.987 -1.006,-0.987l-2.011,-0c-0.554,-0 -1.005,0.442 -1.005,0.987l-0,1.979c-0,0.544 0.451,0.987 1.005,0.987l2.011,-0c0.555,-0 1.006,-0.443 1.006,-0.987l-0,-1.979Zm15.082,-0c0,-0.545 -0.45,-0.987 -1.005,-0.987l-2.011,-0c-0.555,-0 -1.006,0.442 -1.006,0.987l0,1.979c0,0.544 0.451,0.987 1.006,0.987l2.011,-0c0.555,-0 1.005,-0.443 1.005,-0.987l0,-1.979Zm-25.137,-0c0,-0.545 -0.45,-0.987 -1.005,-0.987l-2.011,-0c-0.555,-0 -1.006,0.442 -1.006,0.987l0,1.979c0,0.544 0.451,0.987 1.006,0.987l2.011,-0c0.555,-0 1.005,-0.443 1.005,-0.987l0,-1.979Zm55.302,-0c-0,-0.545 -0.451,-0.987 -1.006,-0.987l-2.011,-0c-0.555,-0 -1.005,0.442 -1.005,0.987l-0,1.979c-0,0.544 0.45,0.987 1.005,0.987l2.011,-0c0.555,-0 1.006,-0.443 1.006,-0.987l-0,-1.979Zm-10.055,-0c-0,-0.545 -0.451,-0.987 -1.006,-0.987l-2.011,-0c-0.555,-0 -1.005,0.442 -1.005,0.987l-0,1.979c-0,0.544 0.45,0.987 1.005,0.987l2.011,-0c0.555,-0 1.006,-0.443 1.006,-0.987l-0,-1.979Zm-15.082,-0c-0,-0.545 -0.451,-0.987 -1.006,-0.987l-2.011,-0c-0.555,-0 -1.005,0.442 -1.005,0.987l-0,1.979c-0,0.544 0.45,0.987 1.005,0.987l2.011,-0c0.555,-0 1.006,-0.443 1.006,-0.987l-0,-1.979Zm20.109,-0.005c0,-0.544 -0.45,-0.987 -1.005,-0.987l-2.011,0c-0.555,0 -1.006,0.443 -1.006,0.987l0,1.979c0,0.545 0.451,0.987 1.006,0.987l2.011,0c0.555,0 1.005,-0.442 1.005,-0.987l0,-1.979Zm-10.055,0c0,-0.544 -0.45,-0.987 -1.005,-0.987l-2.011,0c-0.555,0 -1.006,0.443 -1.006,0.987l0,1.979c0,0.545 0.451,0.987 1.006,0.987l2.011,0c0.555,0 1.005,-0.442 1.005,-0.987l0,-1.979Zm-20.109,0c-0,-0.544 -0.451,-0.987 -1.006,-0.987l-2.011,0c-0.555,0 -1.005,0.443 -1.005,0.987l-0,1.979c-0,0.545 0.45,0.987 1.005,0.987l2.011,0c0.555,0 1.006,-0.442 1.006,-0.987l-0,-1.979Zm-25.137,-4.918c-0,-0.545 -0.451,-0.987 -1.006,-0.987l-2.011,0c-0.555,0 -1.005,0.442 -1.005,0.987l-0,1.979c-0,0.545 0.45,0.987 1.005,0.987l2.011,0c0.555,0 1.006,-0.442 1.006,-0.987l-0,-1.979Zm20.109,-0.004c0,-0.545 -0.45,-0.987 -1.005,-0.987l-2.011,-0c-0.555,-0 -1.006,0.442 -1.006,0.987l0,1.979c0,0.544 0.451,0.987 1.006,0.987l2.011,-0c0.555,-0 1.005,-0.443 1.005,-0.987l0,-1.979Zm20.11,-0c-0,-0.545 -0.451,-0.987 -1.006,-0.987l-2.011,-0c-0.554,-0 -1.005,0.442 -1.005,0.987l-0,1.979c-0,0.544 0.451,0.987 1.005,0.987l2.011,-0c0.555,-0 1.006,-0.443 1.006,-0.987l-0,-1.979Zm-30.165,-0c0,-0.545 -0.45,-0.987 -1.005,-0.987l-2.011,-0c-0.555,-0 -1.005,0.442 -1.005,0.987l-0,1.979c-0,0.544 0.45,0.987 1.005,0.987l2.011,-0c0.555,-0 1.005,-0.443 1.005,-0.987l0,-1.979Zm20.11,-0.005c0,-0.544 -0.45,-0.987 -1.005,-0.987l-2.011,0c-0.555,0 -1.006,0.443 -1.006,0.987l0,1.979c0,0.545 0.451,0.987 1.006,0.987l2.011,0c0.555,0 1.005,-0.442 1.005,-0.987l0,-1.979Zm-15.082,0c-0,-0.544 -0.451,-0.987 -1.006,-0.987l-2.011,0c-0.554,0 -1.005,0.443 -1.005,0.987l-0,1.979c-0,0.545 0.451,0.987 1.005,0.987l2.011,0c0.555,0 1.006,-0.442 1.006,-0.987l-0,-1.979Zm20.11,0c-0,-0.544 -0.451,-0.987 -1.006,-0.987l-2.011,0c-0.555,0 -1.005,0.443 -1.005,0.987l-0,1.979c-0,0.545 0.45,0.987 1.005,0.987l2.011,0c0.555,0 1.006,-0.442 1.006,-0.987l-0,-1.979Zm-30.165,0c0,-0.544 -0.45,-0.987 -1.005,-0.987l-2.011,0c-0.555,0 -1.006,0.443 -1.006,0.987l0,1.979c0,0.545 0.451,0.987 1.006,0.987l2.011,0c0.555,0 1.005,-0.442 1.005,-0.987l0,-1.979Zm55.302,0c-0,-0.544 -0.451,-0.987 -1.006,-0.987l-2.011,0c-0.555,0 -1.005,0.443 -1.005,0.987l-0,1.979c-0,0.545 0.45,0.987 1.005,0.987l2.011,0c0.555,0 1.006,-0.442 1.006,-0.987l-0,-1.979Zm-10.055,0c-0,-0.544 -0.451,-0.987 -1.006,-0.987l-2.011,0c-0.555,0 -1.005,0.443 -1.005,0.987l-0,1.979c-0,0.545 0.45,0.987 1.005,0.987l2.011,0c0.555,0 1.006,-0.442 1.006,-0.987l-0,-1.979Zm5.027,-0.004c0,-0.545 -0.45,-0.987 -1.005,-0.987l-2.011,-0c-0.555,-0 -1.006,0.442 -1.006,0.987l0,1.979c0,0.545 0.451,0.987 1.006,0.987l2.011,-0c0.555,-0 1.005,-0.442 1.005,-0.987l0,-1.979Zm-30.164,-0c-0,-0.545 -0.451,-0.987 -1.006,-0.987l-2.011,-0c-0.555,-0 -1.005,0.442 -1.005,0.987l-0,1.979c-0,0.545 0.45,0.987 1.005,0.987l2.011,-0c0.555,-0 1.006,-0.442 1.006,-0.987l-0,-1.979Zm20.109,-0c0,-0.545 -0.45,-0.987 -1.005,-0.987l-2.011,-0c-0.555,-0 -1.006,0.442 -1.006,0.987l0,1.979c0,0.545 0.451,0.987 1.006,0.987l2.011,-0c0.555,-0 1.005,-0.442 1.005,-0.987l0,-1.979Zm-45.246,-4.94c-0,-0.545 -0.451,-0.987 -1.006,-0.987l-2.011,-0c-0.555,-0 -1.005,0.442 -1.005,0.987l-0,1.978c-0,0.545 0.45,0.988 1.005,0.988l2.011,-0c0.555,-0 1.006,-0.443 1.006,-0.988l-0,-1.978Zm10.054,-0.005c0,-0.545 -0.45,-0.987 -1.005,-0.987l-2.011,0c-0.555,0 -1.005,0.442 -1.005,0.987l-0,1.979c-0,0.545 0.45,0.987 1.005,0.987l2.011,0c0.555,0 1.005,-0.442 1.005,-0.987l0,-1.979Zm10.055,0c0,-0.545 -0.45,-0.987 -1.005,-0.987l-2.011,0c-0.555,0 -1.006,0.442 -1.006,0.987l0,1.979c0,0.545 0.451,0.987 1.006,0.987l2.011,0c0.555,0 1.005,-0.442 1.005,-0.987l0,-1.979Zm20.11,0c-0,-0.545 -0.451,-0.987 -1.006,-0.987l-2.011,0c-0.554,0 -1.005,0.442 -1.005,0.987l-0,1.979c-0,0.545 0.451,0.987 1.005,0.987l2.011,0c0.555,0 1.006,-0.442 1.006,-0.987l-0,-1.979Zm-10.055,-0.004c0,-0.545 -0.45,-0.987 -1.005,-0.987l-2.011,-0c-0.555,-0 -1.006,0.442 -1.006,0.987l0,1.979c0,0.544 0.451,0.987 1.006,0.987l2.011,-0c0.555,-0 1.005,-0.443 1.005,-0.987l0,-1.979Zm-15.082,-0c-0,-0.545 -0.451,-0.987 -1.006,-0.987l-2.011,-0c-0.554,-0 -1.005,0.442 -1.005,0.987l-0,1.979c-0,0.544 0.451,0.987 1.005,0.987l2.011,-0c0.555,-0 1.006,-0.443 1.006,-0.987l-0,-1.979Zm-10.055,-0c0,-0.545 -0.45,-0.987 -1.005,-0.987l-2.011,-0c-0.555,-0 -1.006,0.442 -1.006,0.987l0,1.979c0,0.544 0.451,0.987 1.006,0.987l2.011,-0c0.555,-0 1.005,-0.443 1.005,-0.987l0,-1.979Zm30.165,-0c-0,-0.545 -0.451,-0.987 -1.006,-0.987l-2.011,-0c-0.555,-0 -1.005,0.442 -1.005,0.987l-0,1.979c-0,0.544 0.45,0.987 1.005,0.987l2.011,-0c0.555,-0 1.006,-0.443 1.006,-0.987l-0,-1.979Zm15.082,-0c-0,-0.545 -0.451,-0.987 -1.006,-0.987l-2.011,-0c-0.555,-0 -1.005,0.442 -1.005,0.987l-0,1.979c-0,0.544 0.45,0.987 1.005,0.987l2.011,-0c0.555,-0 1.006,-0.443 1.006,-0.987l-0,-1.979Zm10.055,-0c-0,-0.545 -0.451,-0.987 -1.006,-0.987l-2.011,-0c-0.555,-0 -1.005,0.442 -1.005,0.987l-0,1.979c-0,0.544 0.45,0.987 1.005,0.987l2.011,-0c0.555,-0 1.006,-0.443 1.006,-0.987l-0,-1.979Zm-35.192,-0.005c-0,-0.544 -0.451,-0.987 -1.006,-0.987l-2.011,0c-0.555,0 -1.005,0.443 -1.005,0.987l-0,1.979c-0,0.545 0.45,0.987 1.005,0.987l2.011,0c0.555,0 1.006,-0.442 1.006,-0.987l-0,-1.979Zm20.109,0c0,-0.544 -0.45,-0.987 -1.005,-0.987l-2.011,0c-0.555,0 -1.006,0.443 -1.006,0.987l0,1.979c0,0.545 0.451,0.987 1.006,0.987l2.011,0c0.555,0 1.005,-0.442 1.005,-0.987l0,-1.979Zm10.055,0c0,-0.544 -0.45,-0.987 -1.005,-0.987l-2.011,0c-0.555,0 -1.006,0.443 -1.006,0.987l0,1.979c0,0.545 0.451,0.987 1.006,0.987l2.011,0c0.555,0 1.005,-0.442 1.005,-0.987l0,-1.979Zm-55.301,-4.918c-0,-0.545 -0.451,-0.987 -1.006,-0.987l-2.011,0c-0.555,0 -1.005,0.442 -1.005,0.987l-0,1.979c-0,0.545 0.45,0.987 1.005,0.987l2.011,0c0.555,0 1.006,-0.442 1.006,-0.987l-0,-1.979Zm40.219,-0.004c-0,-0.545 -0.451,-0.987 -1.006,-0.987l-2.011,-0c-0.554,-0 -1.005,0.442 -1.005,0.987l-0,1.979c-0,0.544 0.451,0.987 1.005,0.987l2.011,-0c0.555,-0 1.006,-0.443 1.006,-0.987l-0,-1.979Zm-20.11,-0c0,-0.545 -0.45,-0.987 -1.005,-0.987l-2.011,-0c-0.555,-0 -1.006,0.442 -1.006,0.987l0,1.979c0,0.544 0.451,0.987 1.006,0.987l2.011,-0c0.555,-0 1.005,-0.443 1.005,-0.987l0,-1.979Zm-10.055,-0c0,-0.545 -0.45,-0.987 -1.005,-0.987l-2.011,-0c-0.555,-0 -1.005,0.442 -1.005,0.987l-0,1.979c-0,0.544 0.45,0.987 1.005,0.987l2.011,-0c0.555,-0 1.005,-0.443 1.005,-0.987l0,-1.979Zm5.028,-0.005c-0,-0.544 -0.451,-0.987 -1.006,-0.987l-2.011,0c-0.554,0 -1.005,0.443 -1.005,0.987l-0,1.979c-0,0.545 0.451,0.987 1.005,0.987l2.011,0c0.555,0 1.006,-0.442 1.006,-0.987l-0,-1.979Zm15.082,0c0,-0.544 -0.45,-0.987 -1.005,-0.987l-2.011,0c-0.555,0 -1.006,0.443 -1.006,0.987l0,1.979c0,0.545 0.451,0.987 1.006,0.987l2.011,0c0.555,0 1.005,-0.442 1.005,-0.987l0,-1.979Zm30.165,0c-0,-0.544 -0.451,-0.987 -1.006,-0.987l-2.011,0c-0.555,0 -1.005,0.443 -1.005,0.987l-0,1.979c-0,0.545 0.45,0.987 1.005,0.987l2.011,0c0.555,0 1.006,-0.442 1.006,-0.987l-0,-1.979Zm-10.055,0c-0,-0.544 -0.451,-0.987 -1.006,-0.987l-2.011,0c-0.555,0 -1.005,0.443 -1.005,0.987l-0,1.979c-0,0.545 0.45,0.987 1.005,0.987l2.011,0c0.555,0 1.006,-0.442 1.006,-0.987l-0,-1.979Zm-15.082,0c-0,-0.544 -0.451,-0.987 -1.006,-0.987l-2.011,0c-0.555,0 -1.005,0.443 -1.005,0.987l-0,1.979c-0,0.545 0.45,0.987 1.005,0.987l2.011,0c0.555,0 1.006,-0.442 1.006,-0.987l-0,-1.979Zm-30.165,0c0,-0.544 -0.45,-0.987 -1.005,-0.987l-2.011,0c-0.555,0 -1.006,0.443 -1.006,0.987l0,1.979c0,0.545 0.451,0.987 1.006,0.987l2.011,0c0.555,0 1.005,-0.442 1.005,-0.987l0,-1.979Zm50.274,-0.004c0,-0.545 -0.45,-0.987 -1.005,-0.987l-2.011,-0c-0.555,-0 -1.006,0.442 -1.006,0.987l0,1.979c0,0.545 0.451,0.987 1.006,0.987l2.011,-0c0.555,-0 1.005,-0.442 1.005,-0.987l0,-1.979Zm-10.055,-0c0,-0.545 -0.45,-0.987 -1.005,-0.987l-2.011,-0c-0.555,-0 -1.006,0.442 -1.006,0.987l0,1.979c0,0.545 0.451,0.987 1.006,0.987l2.011,-0c0.555,-0 1.005,-0.442 1.005,-0.987l0,-1.979Zm-20.109,-0c-0,-0.545 -0.451,-0.987 -1.006,-0.987l-2.011,-0c-0.555,-0 -1.005,0.442 -1.005,0.987l-0,1.979c-0,0.545 0.45,0.987 1.005,0.987l2.011,-0c0.555,-0 1.006,-0.442 1.006,-0.987l-0,-1.979Zm-25.137,-4.901c-0,-0.544 -0.451,-0.987 -1.006,-0.987l-2.011,0c-0.555,0 -1.005,0.443 -1.005,0.987l-0,1.979c-0,0.545 0.45,0.987 1.005,0.987l2.011,0c0.555,0 1.006,-0.442 1.006,-0.987l-0,-1.979Zm40.219,-0.004c-0,-0.545 -0.451,-0.987 -1.006,-0.987l-2.011,-0c-0.554,-0 -1.005,0.442 -1.005,0.987l-0,1.979c-0,0.545 0.451,0.987 1.005,0.987l2.011,-0c0.555,-0 1.006,-0.442 1.006,-0.987l-0,-1.979Zm-30.165,0c0,-0.545 -0.45,-0.987 -1.005,-0.987l-2.011,-0c-0.555,-0 -1.005,0.442 -1.005,0.987l-0,1.979c-0,0.545 0.45,0.987 1.005,0.987l2.011,-0c0.555,-0 1.005,-0.442 1.005,-0.987l0,-1.979Zm10.055,0c0,-0.545 -0.45,-0.987 -1.005,-0.987l-2.011,-0c-0.555,-0 -1.006,0.442 -1.006,0.987l0,1.979c0,0.545 0.451,0.987 1.006,0.987l2.011,-0c0.555,-0 1.005,-0.442 1.005,-0.987l0,-1.979Zm10.055,-0.004c0,-0.545 -0.45,-0.988 -1.005,-0.988l-2.011,0c-0.555,0 -1.006,0.443 -1.006,0.988l0,1.978c0,0.545 0.451,0.988 1.006,0.988l2.011,-0c0.555,-0 1.005,-0.443 1.005,-0.988l0,-1.978Zm-15.082,-0c-0,-0.545 -0.451,-0.988 -1.006,-0.988l-2.011,0c-0.554,0 -1.005,0.443 -1.005,0.988l-0,1.978c-0,0.545 0.451,0.988 1.005,0.988l2.011,-0c0.555,-0 1.006,-0.443 1.006,-0.988l-0,-1.978Zm-10.055,-0c0,-0.545 -0.45,-0.988 -1.005,-0.988l-2.011,0c-0.555,0 -1.006,0.443 -1.006,0.988l0,1.978c0,0.545 0.451,0.988 1.006,0.988l2.011,-0c0.555,-0 1.005,-0.443 1.005,-0.988l0,-1.978Zm55.302,-0c-0,-0.545 -0.451,-0.988 -1.006,-0.988l-2.011,0c-0.555,0 -1.005,0.443 -1.005,0.988l-0,1.978c-0,0.545 0.45,0.988 1.005,0.988l2.011,-0c0.555,-0 1.006,-0.443 1.006,-0.988l-0,-1.978Zm-10.055,-0c-0,-0.545 -0.451,-0.988 -1.006,-0.988l-2.011,0c-0.555,0 -1.005,0.443 -1.005,0.988l-0,1.978c-0,0.545 0.45,0.988 1.005,0.988l2.011,-0c0.555,-0 1.006,-0.443 1.006,-0.988l-0,-1.978Zm-15.082,-0c-0,-0.545 -0.451,-0.988 -1.006,-0.988l-2.011,0c-0.555,0 -1.005,0.443 -1.005,0.988l-0,1.978c-0,0.545 0.45,0.988 1.005,0.988l2.011,-0c0.555,-0 1.006,-0.443 1.006,-0.988l-0,-1.978Zm20.109,-0.005c0,-0.545 -0.45,-0.987 -1.005,-0.987l-2.011,0c-0.555,0 -1.006,0.442 -1.006,0.987l0,1.979c0,0.545 0.451,0.987 1.006,0.987l2.011,0c0.555,0 1.005,-0.442 1.005,-0.987l0,-1.979Zm-10.055,0c0,-0.545 -0.45,-0.987 -1.005,-0.987l-2.011,0c-0.555,0 -1.006,0.442 -1.006,0.987l0,1.979c0,0.545 0.451,0.987 1.006,0.987l2.011,0c0.555,0 1.005,-0.442 1.005,-0.987l0,-1.979Zm-20.109,0c-0,-0.545 -0.451,-0.987 -1.006,-0.987l-2.011,0c-0.555,0 -1.005,0.442 -1.005,0.987l-0,1.979c-0,0.545 0.45,0.987 1.005,0.987l2.011,0c0.555,0 1.006,-0.442 1.006,-0.987l-0,-1.979Zm-25.137,-4.918c-0,-0.545 -0.451,-0.987 -1.006,-0.987l-2.011,-0c-0.555,-0 -1.005,0.442 -1.005,0.987l-0,1.979c-0,0.545 0.45,0.987 1.005,0.987l2.011,-0c0.555,-0 1.006,-0.442 1.006,-0.987l-0,-1.979Zm40.219,-0.004c-0,-0.545 -0.451,-0.988 -1.006,-0.988l-2.011,0c-0.554,0 -1.005,0.443 -1.005,0.988l-0,1.978c-0,0.545 0.451,0.987 1.005,0.987l2.011,0c0.555,0 1.006,-0.442 1.006,-0.987l-0,-1.978Zm-20.11,-0c0,-0.545 -0.45,-0.988 -1.005,-0.988l-2.011,0c-0.555,0 -1.006,0.443 -1.006,0.988l0,1.978c0,0.545 0.451,0.987 1.006,0.987l2.011,0c0.555,0 1.005,-0.442 1.005,-0.987l0,-1.978Zm-10.055,-0c0,-0.545 -0.45,-0.988 -1.005,-0.988l-2.011,0c-0.555,0 -1.005,0.443 -1.005,0.988l-0,1.978c-0,0.545 0.45,0.987 1.005,0.987l2.011,0c0.555,0 1.005,-0.442 1.005,-0.987l0,-1.978Zm5.028,-0.005c-0,-0.545 -0.451,-0.987 -1.006,-0.987l-2.011,-0c-0.554,-0 -1.005,0.442 -1.005,0.987l-0,1.979c-0,0.545 0.451,0.987 1.005,0.987l2.011,0c0.555,0 1.006,-0.442 1.006,-0.987l-0,-1.979Zm15.082,0c0,-0.545 -0.45,-0.987 -1.005,-0.987l-2.011,-0c-0.555,-0 -1.006,0.442 -1.006,0.987l0,1.979c0,0.545 0.451,0.987 1.006,0.987l2.011,0c0.555,0 1.005,-0.442 1.005,-0.987l0,-1.979Zm-25.137,0c0,-0.545 -0.45,-0.987 -1.005,-0.987l-2.011,-0c-0.555,-0 -1.006,0.442 -1.006,0.987l0,1.979c0,0.545 0.451,0.987 1.006,0.987l2.011,0c0.555,0 1.005,-0.442 1.005,-0.987l0,-1.979Zm55.302,0c-0,-0.545 -0.451,-0.987 -1.006,-0.987l-2.011,-0c-0.555,-0 -1.005,0.442 -1.005,0.987l-0,1.979c-0,0.545 0.45,0.987 1.005,0.987l2.011,0c0.555,0 1.006,-0.442 1.006,-0.987l-0,-1.979Zm-10.055,0c-0,-0.545 -0.451,-0.987 -1.006,-0.987l-2.011,-0c-0.555,-0 -1.005,0.442 -1.005,0.987l-0,1.979c-0,0.545 0.45,0.987 1.005,0.987l2.011,0c0.555,0 1.006,-0.442 1.006,-0.987l-0,-1.979Zm-15.082,0c-0,-0.545 -0.451,-0.987 -1.006,-0.987l-2.011,-0c-0.555,-0 -1.005,0.442 -1.005,0.987l-0,1.979c-0,0.545 0.45,0.987 1.005,0.987l2.011,0c0.555,0 1.006,-0.442 1.006,-0.987l-0,-1.979Zm10.054,-0.004c0,-0.545 -0.45,-0.987 -1.005,-0.987l-2.011,-0c-0.555,-0 -1.006,0.442 -1.006,0.987l0,1.978c0,0.545 0.451,0.988 1.006,0.988l2.011,-0c0.555,-0 1.005,-0.443 1.005,-0.988l0,-1.978Zm-20.109,-0c-0,-0.545 -0.451,-0.987 -1.006,-0.987l-2.011,-0c-0.555,-0 -1.005,0.442 -1.005,0.987l-0,1.978c-0,0.545 0.45,0.988 1.005,0.988l2.011,-0c0.555,-0 1.006,-0.443 1.006,-0.988l-0,-1.978Zm30.164,-0c0,-0.545 -0.45,-0.987 -1.005,-0.987l-2.011,-0c-0.555,-0 -1.006,0.442 -1.006,0.987l0,1.978c0,0.545 0.451,0.988 1.006,0.988l2.011,-0c0.555,-0 1.005,-0.443 1.005,-0.988l0,-1.978Zm-55.301,-4.941c-0,-0.544 -0.451,-0.987 -1.006,-0.987l-2.011,0c-0.555,0 -1.005,0.443 -1.005,0.987l-0,1.979c-0,0.545 0.45,0.987 1.005,0.987l2.011,0c0.555,0 1.006,-0.442 1.006,-0.987l-0,-1.979Zm40.219,-0.004c-0,-0.545 -0.451,-0.987 -1.006,-0.987l-2.011,-0c-0.554,-0 -1.005,0.442 -1.005,0.987l-0,1.979c-0,0.545 0.451,0.987 1.005,0.987l2.011,-0c0.555,-0 1.006,-0.442 1.006,-0.987l-0,-1.979Zm-20.11,0c0,-0.545 -0.45,-0.987 -1.005,-0.987l-2.011,-0c-0.555,-0 -1.006,0.442 -1.006,0.987l0,1.979c0,0.545 0.451,0.987 1.006,0.987l2.011,-0c0.555,-0 1.005,-0.442 1.005,-0.987l0,-1.979Zm-10.055,0c0,-0.545 -0.45,-0.987 -1.005,-0.987l-2.011,-0c-0.555,-0 -1.005,0.442 -1.005,0.987l-0,1.979c-0,0.545 0.45,0.987 1.005,0.987l2.011,-0c0.555,-0 1.005,-0.442 1.005,-0.987l0,-1.979Zm5.028,-0.004c-0,-0.545 -0.451,-0.988 -1.006,-0.988l-2.011,0c-0.554,0 -1.005,0.443 -1.005,0.988l-0,1.978c-0,0.545 0.451,0.988 1.005,0.988l2.011,-0c0.555,-0 1.006,-0.443 1.006,-0.988l-0,-1.978Zm15.082,-0c0,-0.545 -0.45,-0.988 -1.005,-0.988l-2.011,0c-0.555,0 -1.006,0.443 -1.006,0.988l0,1.978c0,0.545 0.451,0.988 1.006,0.988l2.011,-0c0.555,-0 1.005,-0.443 1.005,-0.988l0,-1.978Zm-25.137,-0c0,-0.545 -0.45,-0.988 -1.005,-0.988l-2.011,0c-0.555,0 -1.006,0.443 -1.006,0.988l0,1.978c0,0.545 0.451,0.988 1.006,0.988l2.011,-0c0.555,-0 1.005,-0.443 1.005,-0.988l0,-1.978Zm45.247,-0c-0,-0.545 -0.451,-0.988 -1.006,-0.988l-2.011,0c-0.555,0 -1.005,0.443 -1.005,0.988l-0,1.978c-0,0.545 0.45,0.988 1.005,0.988l2.011,-0c0.555,-0 1.006,-0.443 1.006,-0.988l-0,-1.978Zm-15.082,-0c-0,-0.545 -0.451,-0.988 -1.006,-0.988l-2.011,0c-0.555,0 -1.005,0.443 -1.005,0.988l-0,1.978c-0,0.545 0.45,0.988 1.005,0.988l2.011,-0c0.555,-0 1.006,-0.443 1.006,-0.988l-0,-1.978Zm25.137,-0c-0,-0.545 -0.451,-0.988 -1.006,-0.988l-2.011,0c-0.555,0 -1.005,0.443 -1.005,0.988l-0,1.978c-0,0.545 0.45,0.988 1.005,0.988l2.011,-0c0.555,-0 1.006,-0.443 1.006,-0.988l-0,-1.978Zm-35.192,-0.005c-0,-0.545 -0.451,-0.987 -1.006,-0.987l-2.011,0c-0.555,0 -1.005,0.442 -1.005,0.987l-0,1.979c-0,0.545 0.45,0.987 1.005,0.987l2.011,0c0.555,0 1.006,-0.442 1.006,-0.987l-0,-1.979Zm20.109,0c0,-0.545 -0.45,-0.987 -1.005,-0.987l-2.011,0c-0.555,0 -1.006,0.442 -1.006,0.987l0,1.979c0,0.545 0.451,0.987 1.006,0.987l2.011,0c0.555,0 1.005,-0.442 1.005,-0.987l0,-1.979Zm10.055,0c0,-0.545 -0.45,-0.987 -1.005,-0.987l-2.011,0c-0.555,0 -1.006,0.442 -1.006,0.987l0,1.979c0,0.545 0.451,0.987 1.006,0.987l2.011,0c0.555,0 1.005,-0.442 1.005,-0.987l0,-1.979Z" style="fill:#918b8b;"/><clipPath id="_clip1"><path d="M68.986,-0.5l-1.005,0l-0,1.97c-0,0.545 -0.451,0.987 -1.006,0.987l-2.011,0c-0.555,0 -1.005,-0.442 -1.005,-0.987l-0,-1.97l-1.006,0l0,1.966c0,0.544 -0.45,0.987 -1.005,0.987l-2.011,-0c-0.555,-0 -1.006,-0.443 -1.006,-0.987l0,-1.966l-1.005,0l-0,1.97c-0,0.545 -0.451,0.987 -1.006,0.987l-2.011,0c-0.555,0 -1.005,-0.442 -1.005,-0.987l-0,-1.97l-1.006,0l0,1.966c0,0.544 -0.45,0.987 -1.005,0.987l-2.011,-0c-0.555,-0 -1.006,-0.443 -1.006,-0.987l0,-1.966l-1.005,0l-0,1.974c-0,0.545 -0.451,0.988 -1.006,0.988l-2.011,-0c-0.554,-0 -1.005,-0.443 -1.005,-0.988l-0,-1.974l-1.005,0l-0,1.97c-0,0.545 -0.451,0.987 -1.006,0.987l-2.011,0c-0.555,0 -1.005,-0.442 -1.005,-0.987l-0,-1.97l-1.006,0l0,1.97c0,0.545 -0.45,0.987 -1.005,0.987l-2.011,0c-0.555,0 -1.006,-0.442 -1.006,-0.987l0,-1.97l-1.005,0l-0,1.966c-0,0.544 -0.451,0.987 -1.006,0.987l-2.011,-0c-0.555,-0 -1.005,-0.443 -1.005,-0.987l-0,-1.966l-1.006,0l0,1.974c0,0.545 -0.45,0.988 -1.005,0.988l-2.011,-0c-0.555,-0 -1.006,-0.443 -1.006,-0.988l0,-1.974l-1.005,0l-0,1.97c-0,0.545 -0.451,0.987 -1.006,0.987l-2.011,0c-0.554,0 -1.005,-0.442 -1.005,-0.987l-0,-1.97l-1.006,0l0,1.974c0,0.545 -0.45,0.988 -1.005,0.988l-2.011,-0c-0.555,-0 -1.005,-0.443 -1.005,-0.988l-0,-1.974l-1.006,0l0,1.97c0,0.545 -0.45,0.987 -1.005,0.987l-2.011,0c-0.555,0 -1.006,-0.442 -1.006,-0.987l0,-1.97l-1.005,0c-0,0 -0,1.979 -0,1.979c-0,0.545 -0.451,0.987 -1.006,0.987l-2.011,-0c-0.555,-0 -1.005,-0.442 -1.005,-0.987l-0,-1.979c-0,0 -1.006,0 -1.006,0l0,1.974c0,0.545 -0.45,0.988 -1.005,0.988l-2.011,-0c-0.037,-0 -0.073,-0.002 -0.108,-0.006l0,0.99c0.035,-0.004 0.071,-0.006 0.108,-0.006l2.011,-0c0.555,-0 1.005,0.442 1.005,0.987l0,1.979c0,0.545 -0.45,0.987 -1.005,0.987l-2.011,-0c-0.037,-0 -0.073,-0.002 -0.108,-0.006l0,1.012c0.035,-0.004 0.071,-0.006 0.108,-0.006l2.011,0c0.555,0 1.005,0.443 1.005,0.988l0,1.978c0,0.545 -0.45,0.987 -1.005,0.987l-2.011,0c-0.037,0 -0.073,-0.001 -0.108,-0.005l0,0.99c0.035,-0.004 0.071,-0.006 0.108,-0.006l2.011,-0c0.555,-0 1.005,0.442 1.005,0.987l0,1.979c0,0.545 -0.45,0.987 -1.005,0.987l-2.011,-0c-0.037,-0 -0.073,-0.002 -0.108,-0.006l0,0.972c0.035,-0.003 0.071,-0.005 0.108,-0.005l2.011,-0c0.555,-0 1.005,0.442 1.005,0.987l0,1.979c0,0.544 -0.45,0.987 -1.005,0.987l-2.011,-0c-0.037,-0 -0.073,-0.002 -0.108,-0.006l0,0.99c0.035,-0.004 0.071,-0.006 0.108,-0.006l2.011,0c0.555,0 1.005,0.442 1.005,0.987l0,1.979c0,0.545 -0.45,0.987 -1.005,0.987l-2.011,0c-0.037,0 -0.073,-0.002 -0.108,-0.006l0,1.012c0.035,-0.003 0.071,-0.005 0.108,-0.005l2.011,-0c0.555,-0 1.005,0.442 1.005,0.987l0,1.979c0,0.544 -0.45,0.987 -1.005,0.987l-2.011,-0c-0.037,-0 -0.073,-0.002 -0.108,-0.006l0,0.99c0.035,-0.004 0.071,-0.006 0.108,-0.006l2.011,0c0.555,0 1.005,0.442 1.005,0.987l0,1.979c0,0.545 -0.45,0.987 -1.005,0.987l-2.011,0c-0.037,0 -0.073,-0.002 -0.108,-0.006l0,0.981c0.035,-0.003 0.071,-0.005 0.108,-0.005l2.011,-0c0.555,-0 1.005,0.442 1.005,0.987l0,1.979c0,0.544 -0.45,0.987 -1.005,0.987l-2.011,-0c-0.037,-0 -0.073,-0.002 -0.108,-0.006l0,1.012c0.035,-0.004 0.071,-0.006 0.108,-0.006l2.011,0c0.555,0 1.005,0.443 1.005,0.987l0,1.979c0,0.545 -0.45,0.987 -1.005,0.987l-2.011,0c-0.037,0 -0.073,-0.002 -0.108,-0.005l0,0.989c0.035,-0.003 0.071,-0.005 0.108,-0.005l2.011,-0c0.555,-0 1.005,0.442 1.005,0.987l0,0.156l1.006,0l-0,-0.152c-0,-0.545 0.45,-0.987 1.005,-0.987l2.011,0c0.555,0 1.006,0.442 1.006,0.987l-0,0.152l1.005,0l0,-0.161c0,-0.544 0.451,-0.987 1.006,-0.987l2.011,0c0.555,0 1.005,0.443 1.005,0.987l0,0.161l1.006,0l-0,-0.156c-0,-0.545 0.45,-0.987 1.005,-0.987l2.011,-0c0.555,-0 1.005,0.442 1.005,0.987l0,0.156l1.006,0l-0,-0.161c-0,-0.544 0.451,-0.987 1.005,-0.987l2.011,0c0.555,0 1.006,0.443 1.006,0.987l-0,0.161l1.005,0l0,-0.156c0,-0.545 0.451,-0.987 1.006,-0.987l2.011,-0c0.555,-0 1.005,0.442 1.005,0.987l0,0.156l1.006,0l-0,-0.165c-0,-0.545 0.45,-0.987 1.005,-0.987l2.011,-0c0.555,-0 1.006,0.442 1.006,0.987l-0,0.165l1.005,0l0,-0.161c0,-0.544 0.451,-0.987 1.006,-0.987l2.011,0c0.555,0 1.005,0.443 1.005,0.987l0,0.161l1.006,0l-0,-0.161c-0,-0.544 0.45,-0.987 1.005,-0.987l2.011,0c0.555,0 1.006,0.443 1.006,0.987l-0,0.161l1.005,0l-0,-0.156c-0,-0.545 0.451,-0.987 1.005,-0.987l2.011,-0c0.555,-0 1.006,0.442 1.006,0.987l-0,0.156l1.005,0l0,-0.165c0,-0.545 0.451,-0.987 1.006,-0.987l2.011,-0c0.555,-0 1.005,0.442 1.005,0.987l0,0.165l1.006,0l-0,-0.161c-0,-0.544 0.45,-0.987 1.005,-0.987l2.011,0c0.555,0 1.006,0.443 1.006,0.987l-0,0.161l1.005,0l0,-0.165c0,-0.545 0.451,-0.987 1.006,-0.987l2.011,-0c0.555,-0 1.005,0.442 1.005,0.987l0,0.165l1.006,0l-0,-0.161c-0,-0.544 0.45,-0.987 1.005,-0.987l2.011,0c0.555,0 1.006,0.443 1.006,0.987l-0,0.161l1.005,0l0,-0.161c0,-0.544 0.451,-0.987 1.006,-0.987l-0,-0.978c-0.555,-0 -1.006,-0.442 -1.006,-0.987l0,-1.979c0,-0.545 0.451,-0.987 1.006,-0.987l-0,-1.001c-0.555,0 -1.006,-0.442 -1.006,-0.987l0,-1.979c0,-0.544 0.451,-0.987 1.006,-0.987l-0,-0.969c-0.555,-0 -1.006,-0.443 -1.006,-0.987l0,-1.979c0,-0.545 0.451,-0.987 1.006,-0.987l-0,-0.979c-0.555,0 -1.006,-0.442 -1.006,-0.987l0,-1.979c0,-0.544 0.451,-0.987 1.006,-0.987l-0,-1c-0.555,-0 -1.006,-0.443 -1.006,-0.987l0,-1.979c0,-0.545 0.451,-0.987 1.006,-0.987l-0,-0.979c-0.555,0 -1.006,-0.442 -1.006,-0.987l0,-1.979c0,-0.544 0.451,-0.987 1.006,-0.987l-0,-0.96c-0.555,-0 -1.006,-0.443 -1.006,-0.988l0,-1.978c0,-0.545 0.451,-0.988 1.006,-0.988l-0,-0.978c-0.555,0 -1.006,-0.442 -1.006,-0.987l0,-1.979c0,-0.545 0.451,-0.987 1.006,-0.987l-0,-1c-0.555,-0 -1.006,-0.443 -1.006,-0.988l0,-1.978c0,-0.545 0.451,-0.988 1.006,-0.988l-0,-0.978c-0.555,0 -1.006,-0.442 -1.006,-0.987l0,-1.97Zm-61.334,44.423c-0,-0.545 -0.451,-0.987 -1.006,-0.987l-2.011,-0c-0.555,-0 -1.005,0.442 -1.005,0.987l-0,1.979c-0,0.544 0.45,0.987 1.005,0.987l2.011,-0c0.555,-0 1.006,-0.443 1.006,-0.987l-0,-1.979Zm40.219,-0.005c-0,-0.544 -0.451,-0.987 -1.006,-0.987l-2.011,0c-0.554,0 -1.005,0.443 -1.005,0.987l-0,1.979c-0,0.545 0.451,0.987 1.005,0.987l2.011,0c0.555,0 1.006,-0.442 1.006,-0.987l-0,-1.979Zm-20.11,0c0,-0.544 -0.45,-0.987 -1.005,-0.987l-2.011,0c-0.555,0 -1.006,0.443 -1.006,0.987l0,1.979c0,0.545 0.451,0.987 1.006,0.987l2.011,0c0.555,0 1.005,-0.442 1.005,-0.987l0,-1.979Zm-10.055,0c0,-0.544 -0.45,-0.987 -1.005,-0.987l-2.011,0c-0.555,0 -1.005,0.443 -1.005,0.987l-0,1.979c-0,0.545 0.45,0.987 1.005,0.987l2.011,0c0.555,0 1.005,-0.442 1.005,-0.987l0,-1.979Zm40.22,-0.004c-0,-0.545 -0.451,-0.987 -1.006,-0.987l-2.011,-0c-0.555,-0 -1.005,0.442 -1.005,0.987l-0,1.979c-0,0.545 0.45,0.987 1.005,0.987l2.011,-0c0.555,-0 1.006,-0.442 1.006,-0.987l-0,-1.979Zm-15.082,-0c-0,-0.545 -0.451,-0.987 -1.006,-0.987l-2.011,-0c-0.555,-0 -1.005,0.442 -1.005,0.987l-0,1.979c-0,0.545 0.45,0.987 1.005,0.987l2.011,-0c0.555,-0 1.006,-0.442 1.006,-0.987l-0,-1.979Zm-20.11,-0c-0,-0.545 -0.451,-0.987 -1.006,-0.987l-2.011,-0c-0.554,-0 -1.005,0.442 -1.005,0.987l-0,1.979c-0,0.545 0.451,0.987 1.005,0.987l2.011,-0c0.555,-0 1.006,-0.442 1.006,-0.987l-0,-1.979Zm15.082,-0c0,-0.545 -0.45,-0.987 -1.005,-0.987l-2.011,-0c-0.555,-0 -1.006,0.442 -1.006,0.987l0,1.979c0,0.545 0.451,0.987 1.006,0.987l2.011,-0c0.555,-0 1.005,-0.442 1.005,-0.987l0,-1.979Zm30.165,-0c-0,-0.545 -0.451,-0.987 -1.006,-0.987l-2.011,-0c-0.555,-0 -1.005,0.442 -1.005,0.987l-0,1.979c-0,0.545 0.45,0.987 1.005,0.987l2.011,-0c0.555,-0 1.006,-0.442 1.006,-0.987l-0,-1.979Zm-55.302,-0c0,-0.545 -0.45,-0.987 -1.005,-0.987l-2.011,-0c-0.555,-0 -1.006,0.442 -1.006,0.987l0,1.979c0,0.545 0.451,0.987 1.006,0.987l2.011,-0c0.555,-0 1.005,-0.442 1.005,-0.987l0,-1.979Zm20.11,-0.004c-0,-0.545 -0.451,-0.988 -1.006,-0.988l-2.011,0c-0.555,0 -1.005,0.443 -1.005,0.988l-0,1.978c-0,0.545 0.45,0.987 1.005,0.987l2.011,0c0.555,0 1.006,-0.442 1.006,-0.987l-0,-1.978Zm30.164,-0c0,-0.545 -0.45,-0.988 -1.005,-0.988l-2.011,0c-0.555,0 -1.006,0.443 -1.006,0.988l0,1.978c0,0.545 0.451,0.987 1.006,0.987l2.011,0c0.555,0 1.005,-0.442 1.005,-0.987l0,-1.978Zm-10.055,-0c0,-0.545 -0.45,-0.988 -1.005,-0.988l-2.011,0c-0.555,0 -1.006,0.443 -1.006,0.988l0,1.978c0,0.545 0.451,0.987 1.006,0.987l2.011,0c0.555,0 1.005,-0.442 1.005,-0.987l0,-1.978Zm-45.246,-4.941c-0,-0.545 -0.451,-0.987 -1.006,-0.987l-2.011,0c-0.555,0 -1.005,0.442 -1.005,0.987l-0,1.979c-0,0.545 0.45,0.987 1.005,0.987l2.011,0c0.555,0 1.006,-0.442 1.006,-0.987l-0,-1.979Zm40.219,-0.004c-0,-0.545 -0.451,-0.987 -1.006,-0.987l-2.011,-0c-0.554,-0 -1.005,0.442 -1.005,0.987l-0,1.979c-0,0.544 0.451,0.987 1.005,0.987l2.011,-0c0.555,-0 1.006,-0.443 1.006,-0.987l-0,-1.979Zm-20.11,-0c0,-0.545 -0.45,-0.987 -1.005,-0.987l-2.011,-0c-0.555,-0 -1.006,0.442 -1.006,0.987l0,1.979c0,0.544 0.451,0.987 1.006,0.987l2.011,-0c0.555,-0 1.005,-0.443 1.005,-0.987l0,-1.979Zm-10.055,-0c0,-0.545 -0.45,-0.987 -1.005,-0.987l-2.011,-0c-0.555,-0 -1.005,0.442 -1.005,0.987l-0,1.979c-0,0.544 0.45,0.987 1.005,0.987l2.011,-0c0.555,-0 1.005,-0.443 1.005,-0.987l0,-1.979Zm20.11,-0.005c0,-0.544 -0.45,-0.987 -1.005,-0.987l-2.011,0c-0.555,0 -1.006,0.443 -1.006,0.987l0,1.979c0,0.545 0.451,0.987 1.006,0.987l2.011,0c0.555,0 1.005,-0.442 1.005,-0.987l0,-1.979Zm-15.082,0c-0,-0.544 -0.451,-0.987 -1.006,-0.987l-2.011,0c-0.554,0 -1.005,0.443 -1.005,0.987l-0,1.979c-0,0.545 0.451,0.987 1.005,0.987l2.011,0c0.555,0 1.006,-0.442 1.006,-0.987l-0,-1.979Zm-10.055,0c0,-0.544 -0.45,-0.987 -1.005,-0.987l-2.011,0c-0.555,0 -1.006,0.443 -1.006,0.987l0,1.979c0,0.545 0.451,0.987 1.006,0.987l2.011,0c0.555,0 1.005,-0.442 1.005,-0.987l0,-1.979Zm55.302,0c-0,-0.544 -0.451,-0.987 -1.006,-0.987l-2.011,0c-0.555,0 -1.005,0.443 -1.005,0.987l-0,1.979c-0,0.545 0.45,0.987 1.005,0.987l2.011,0c0.555,0 1.006,-0.442 1.006,-0.987l-0,-1.979Zm-25.137,0c-0,-0.544 -0.451,-0.987 -1.006,-0.987l-2.011,0c-0.555,0 -1.005,0.443 -1.005,0.987l-0,1.979c-0,0.545 0.45,0.987 1.005,0.987l2.011,0c0.555,0 1.006,-0.442 1.006,-0.987l-0,-1.979Zm15.082,0c-0,-0.544 -0.451,-0.987 -1.006,-0.987l-2.011,0c-0.555,0 -1.005,0.443 -1.005,0.987l-0,1.979c-0,0.545 0.45,0.987 1.005,0.987l2.011,0c0.555,0 1.006,-0.442 1.006,-0.987l-0,-1.979Zm5.027,-0.004c0,-0.545 -0.45,-0.987 -1.005,-0.987l-2.011,-0c-0.555,-0 -1.006,0.442 -1.006,0.987l0,1.979c0,0.545 0.451,0.987 1.006,0.987l2.011,-0c0.555,-0 1.005,-0.442 1.005,-0.987l0,-1.979Zm-30.164,0c-0,-0.545 -0.451,-0.987 -1.006,-0.987l-2.011,-0c-0.555,-0 -1.005,0.442 -1.005,0.987l-0,1.979c-0,0.545 0.45,0.987 1.005,0.987l2.011,-0c0.555,-0 1.006,-0.442 1.006,-0.987l-0,-1.979Zm20.109,0c0,-0.545 -0.45,-0.987 -1.005,-0.987l-2.011,-0c-0.555,-0 -1.006,0.442 -1.006,0.987l0,1.979c0,0.545 0.451,0.987 1.006,0.987l2.011,-0c0.555,-0 1.005,-0.442 1.005,-0.987l0,-1.979Zm-45.246,-4.909c-0,-0.545 -0.451,-0.988 -1.006,-0.988l-2.011,0c-0.555,0 -1.005,0.443 -1.005,0.988l-0,1.978c-0,0.545 0.45,0.988 1.005,0.988l2.011,-0c0.555,-0 1.006,-0.443 1.006,-0.988l-0,-1.978Zm40.219,-0.005c-0,-0.545 -0.451,-0.987 -1.006,-0.987l-2.011,0c-0.554,0 -1.005,0.442 -1.005,0.987l-0,1.979c-0,0.545 0.451,0.987 1.005,0.987l2.011,0c0.555,0 1.006,-0.442 1.006,-0.987l-0,-1.979Zm-20.11,0c0,-0.545 -0.45,-0.987 -1.005,-0.987l-2.011,0c-0.555,0 -1.006,0.442 -1.006,0.987l0,1.979c0,0.545 0.451,0.987 1.006,0.987l2.011,0c0.555,0 1.005,-0.442 1.005,-0.987l0,-1.979Zm-10.055,0c0,-0.545 -0.45,-0.987 -1.005,-0.987l-2.011,0c-0.555,0 -1.005,0.442 -1.005,0.987l-0,1.979c-0,0.545 0.45,0.987 1.005,0.987l2.011,0c0.555,0 1.005,-0.442 1.005,-0.987l0,-1.979Zm5.028,-0.004c-0,-0.545 -0.451,-0.987 -1.006,-0.987l-2.011,-0c-0.554,-0 -1.005,0.442 -1.005,0.987l-0,1.979c-0,0.544 0.451,0.987 1.005,0.987l2.011,-0c0.555,-0 1.006,-0.443 1.006,-0.987l-0,-1.979Zm15.082,-0c0,-0.545 -0.45,-0.987 -1.005,-0.987l-2.011,-0c-0.555,-0 -1.006,0.442 -1.006,0.987l0,1.979c0,0.544 0.451,0.987 1.006,0.987l2.011,-0c0.555,-0 1.005,-0.443 1.005,-0.987l0,-1.979Zm-25.137,-0c0,-0.545 -0.45,-0.987 -1.005,-0.987l-2.011,-0c-0.555,-0 -1.006,0.442 -1.006,0.987l0,1.979c0,0.544 0.451,0.987 1.006,0.987l2.011,-0c0.555,-0 1.005,-0.443 1.005,-0.987l0,-1.979Zm55.302,-0c-0,-0.545 -0.451,-0.987 -1.006,-0.987l-2.011,-0c-0.555,-0 -1.005,0.442 -1.005,0.987l-0,1.979c-0,0.544 0.45,0.987 1.005,0.987l2.011,-0c0.555,-0 1.006,-0.443 1.006,-0.987l-0,-1.979Zm-10.055,-0c-0,-0.545 -0.451,-0.987 -1.006,-0.987l-2.011,-0c-0.555,-0 -1.005,0.442 -1.005,0.987l-0,1.979c-0,0.544 0.45,0.987 1.005,0.987l2.011,-0c0.555,-0 1.006,-0.443 1.006,-0.987l-0,-1.979Zm-15.082,-0c-0,-0.545 -0.451,-0.987 -1.006,-0.987l-2.011,-0c-0.555,-0 -1.005,0.442 -1.005,0.987l-0,1.979c-0,0.544 0.45,0.987 1.005,0.987l2.011,-0c0.555,-0 1.006,-0.443 1.006,-0.987l-0,-1.979Zm20.109,-0.005c0,-0.544 -0.45,-0.987 -1.005,-0.987l-2.011,0c-0.555,0 -1.006,0.443 -1.006,0.987l0,1.979c0,0.545 0.451,0.987 1.006,0.987l2.011,0c0.555,0 1.005,-0.442 1.005,-0.987l0,-1.979Zm-10.055,0c0,-0.544 -0.45,-0.987 -1.005,-0.987l-2.011,0c-0.555,0 -1.006,0.443 -1.006,0.987l0,1.979c0,0.545 0.451,0.987 1.006,0.987l2.011,0c0.555,0 1.005,-0.442 1.005,-0.987l0,-1.979Zm-20.109,0c-0,-0.544 -0.451,-0.987 -1.006,-0.987l-2.011,0c-0.555,0 -1.005,0.443 -1.005,0.987l-0,1.979c-0,0.545 0.45,0.987 1.005,0.987l2.011,0c0.555,0 1.006,-0.442 1.006,-0.987l-0,-1.979Zm-25.137,-4.918c-0,-0.545 -0.451,-0.987 -1.006,-0.987l-2.011,0c-0.555,0 -1.005,0.442 -1.005,0.987l-0,1.979c-0,0.545 0.45,0.987 1.005,0.987l2.011,0c0.555,0 1.006,-0.442 1.006,-0.987l-0,-1.979Zm20.109,-0.004c0,-0.545 -0.45,-0.987 -1.005,-0.987l-2.011,-0c-0.555,-0 -1.006,0.442 -1.006,0.987l0,1.979c0,0.544 0.451,0.987 1.006,0.987l2.011,-0c0.555,-0 1.005,-0.443 1.005,-0.987l0,-1.979Zm20.11,-0c-0,-0.545 -0.451,-0.987 -1.006,-0.987l-2.011,-0c-0.554,-0 -1.005,0.442 -1.005,0.987l-0,1.979c-0,0.544 0.451,0.987 1.005,0.987l2.011,-0c0.555,-0 1.006,-0.443 1.006,-0.987l-0,-1.979Zm-30.165,-0c0,-0.545 -0.45,-0.987 -1.005,-0.987l-2.011,-0c-0.555,-0 -1.005,0.442 -1.005,0.987l-0,1.979c-0,0.544 0.45,0.987 1.005,0.987l2.011,-0c0.555,-0 1.005,-0.443 1.005,-0.987l0,-1.979Zm20.11,-0.005c0,-0.544 -0.45,-0.987 -1.005,-0.987l-2.011,0c-0.555,0 -1.006,0.443 -1.006,0.987l0,1.979c0,0.545 0.451,0.987 1.006,0.987l2.011,0c0.555,0 1.005,-0.442 1.005,-0.987l0,-1.979Zm-15.082,0c-0,-0.544 -0.451,-0.987 -1.006,-0.987l-2.011,0c-0.554,0 -1.005,0.443 -1.005,0.987l-0,1.979c-0,0.545 0.451,0.987 1.005,0.987l2.011,0c0.555,0 1.006,-0.442 1.006,-0.987l-0,-1.979Zm20.11,0c-0,-0.544 -0.451,-0.987 -1.006,-0.987l-2.011,0c-0.555,0 -1.005,0.443 -1.005,0.987l-0,1.979c-0,0.545 0.45,0.987 1.005,0.987l2.011,0c0.555,0 1.006,-0.442 1.006,-0.987l-0,-1.979Zm-30.165,0c0,-0.544 -0.45,-0.987 -1.005,-0.987l-2.011,0c-0.555,0 -1.006,0.443 -1.006,0.987l0,1.979c0,0.545 0.451,0.987 1.006,0.987l2.011,0c0.555,0 1.005,-0.442 1.005,-0.987l0,-1.979Zm55.302,0c-0,-0.544 -0.451,-0.987 -1.006,-0.987l-2.011,0c-0.555,0 -1.005,0.443 -1.005,0.987l-0,1.979c-0,0.545 0.45,0.987 1.005,0.987l2.011,0c0.555,0 1.006,-0.442 1.006,-0.987l-0,-1.979Zm-10.055,0c-0,-0.544 -0.451,-0.987 -1.006,-0.987l-2.011,0c-0.555,0 -1.005,0.443 -1.005,0.987l-0,1.979c-0,0.545 0.45,0.987 1.005,0.987l2.011,0c0.555,0 1.006,-0.442 1.006,-0.987l-0,-1.979Zm5.027,-0.004c0,-0.545 -0.45,-0.987 -1.005,-0.987l-2.011,-0c-0.555,-0 -1.006,0.442 -1.006,0.987l0,1.979c0,0.545 0.451,0.987 1.006,0.987l2.011,-0c0.555,-0 1.005,-0.442 1.005,-0.987l0,-1.979Zm-30.164,-0c-0,-0.545 -0.451,-0.987 -1.006,-0.987l-2.011,-0c-0.555,-0 -1.005,0.442 -1.005,0.987l-0,1.979c-0,0.545 0.45,0.987 1.005,0.987l2.011,-0c0.555,-0 1.006,-0.442 1.006,-0.987l-0,-1.979Zm20.109,-0c0,-0.545 -0.45,-0.987 -1.005,-0.987l-2.011,-0c-0.555,-0 -1.006,0.442 -1.006,0.987l0,1.979c0,0.545 0.451,0.987 1.006,0.987l2.011,-0c0.555,-0 1.005,-0.442 1.005,-0.987l0,-1.979Zm-45.246,-4.94c-0,-0.545 -0.451,-0.987 -1.006,-0.987l-2.011,-0c-0.555,-0 -1.005,0.442 -1.005,0.987l-0,1.978c-0,0.545 0.45,0.988 1.005,0.988l2.011,-0c0.555,-0 1.006,-0.443 1.006,-0.988l-0,-1.978Zm10.054,-0.005c0,-0.545 -0.45,-0.987 -1.005,-0.987l-2.011,0c-0.555,0 -1.005,0.442 -1.005,0.987l-0,1.979c-0,0.545 0.45,0.987 1.005,0.987l2.011,0c0.555,0 1.005,-0.442 1.005,-0.987l0,-1.979Zm10.055,0c0,-0.545 -0.45,-0.987 -1.005,-0.987l-2.011,0c-0.555,0 -1.006,0.442 -1.006,0.987l0,1.979c0,0.545 0.451,0.987 1.006,0.987l2.011,0c0.555,0 1.005,-0.442 1.005,-0.987l0,-1.979Zm20.11,0c-0,-0.545 -0.451,-0.987 -1.006,-0.987l-2.011,0c-0.554,0 -1.005,0.442 -1.005,0.987l-0,1.979c-0,0.545 0.451,0.987 1.005,0.987l2.011,0c0.555,0 1.006,-0.442 1.006,-0.987l-0,-1.979Zm-10.055,-0.004c0,-0.545 -0.45,-0.987 -1.005,-0.987l-2.011,-0c-0.555,-0 -1.006,0.442 -1.006,0.987l0,1.979c0,0.544 0.451,0.987 1.006,0.987l2.011,-0c0.555,-0 1.005,-0.443 1.005,-0.987l0,-1.979Zm-15.082,-0c-0,-0.545 -0.451,-0.987 -1.006,-0.987l-2.011,-0c-0.554,-0 -1.005,0.442 -1.005,0.987l-0,1.979c-0,0.544 0.451,0.987 1.005,0.987l2.011,-0c0.555,-0 1.006,-0.443 1.006,-0.987l-0,-1.979Zm-10.055,-0c0,-0.545 -0.45,-0.987 -1.005,-0.987l-2.011,-0c-0.555,-0 -1.006,0.442 -1.006,0.987l0,1.979c0,0.544 0.451,0.987 1.006,0.987l2.011,-0c0.555,-0 1.005,-0.443 1.005,-0.987l0,-1.979Zm30.165,-0c-0,-0.545 -0.451,-0.987 -1.006,-0.987l-2.011,-0c-0.555,-0 -1.005,0.442 -1.005,0.987l-0,1.979c-0,0.544 0.45,0.987 1.005,0.987l2.011,-0c0.555,-0 1.006,-0.443 1.006,-0.987l-0,-1.979Zm15.082,-0c-0,-0.545 -0.451,-0.987 -1.006,-0.987l-2.011,-0c-0.555,-0 -1.005,0.442 -1.005,0.987l-0,1.979c-0,0.544 0.45,0.987 1.005,0.987l2.011,-0c0.555,-0 1.006,-0.443 1.006,-0.987l-0,-1.979Zm10.055,-0c-0,-0.545 -0.451,-0.987 -1.006,-0.987l-2.011,-0c-0.555,-0 -1.005,0.442 -1.005,0.987l-0,1.979c-0,0.544 0.45,0.987 1.005,0.987l2.011,-0c0.555,-0 1.006,-0.443 1.006,-0.987l-0,-1.979Zm-35.192,-0.005c-0,-0.544 -0.451,-0.987 -1.006,-0.987l-2.011,0c-0.555,0 -1.005,0.443 -1.005,0.987l-0,1.979c-0,0.545 0.45,0.987 1.005,0.987l2.011,0c0.555,0 1.006,-0.442 1.006,-0.987l-0,-1.979Zm20.109,0c0,-0.544 -0.45,-0.987 -1.005,-0.987l-2.011,0c-0.555,0 -1.006,0.443 -1.006,0.987l0,1.979c0,0.545 0.451,0.987 1.006,0.987l2.011,0c0.555,0 1.005,-0.442 1.005,-0.987l0,-1.979Zm10.055,0c0,-0.544 -0.45,-0.987 -1.005,-0.987l-2.011,0c-0.555,0 -1.006,0.443 -1.006,0.987l0,1.979c0,0.545 0.451,0.987 1.006,0.987l2.011,0c0.555,0 1.005,-0.442 1.005,-0.987l0,-1.979Zm-55.301,-4.918c-0,-0.545 -0.451,-0.987 -1.006,-0.987l-2.011,0c-0.555,0 -1.005,0.442 -1.005,0.987l-0,1.979c-0,0.545 0.45,0.987 1.005,0.987l2.011,0c0.555,0 1.006,-0.442 1.006,-0.987l-0,-1.979Zm40.219,-0.004c-0,-0.545 -0.451,-0.987 -1.006,-0.987l-2.011,-0c-0.554,-0 -1.005,0.442 -1.005,0.987l-0,1.979c-0,0.544 0.451,0.987 1.005,0.987l2.011,-0c0.555,-0 1.006,-0.443 1.006,-0.987l-0,-1.979Zm-20.11,-0c0,-0.545 -0.45,-0.987 -1.005,-0.987l-2.011,-0c-0.555,-0 -1.006,0.442 -1.006,0.987l0,1.979c0,0.544 0.451,0.987 1.006,0.987l2.011,-0c0.555,-0 1.005,-0.443 1.005,-0.987l0,-1.979Zm-10.055,-0c0,-0.545 -0.45,-0.987 -1.005,-0.987l-2.011,-0c-0.555,-0 -1.005,0.442 -1.005,0.987l-0,1.979c-0,0.544 0.45,0.987 1.005,0.987l2.011,-0c0.555,-0 1.005,-0.443 1.005,-0.987l0,-1.979Zm5.028,-0.005c-0,-0.544 -0.451,-0.987 -1.006,-0.987l-2.011,0c-0.554,0 -1.005,0.443 -1.005,0.987l-0,1.979c-0,0.545 0.451,0.987 1.005,0.987l2.011,0c0.555,0 1.006,-0.442 1.006,-0.987l-0,-1.979Zm15.082,0c0,-0.544 -0.45,-0.987 -1.005,-0.987l-2.011,0c-0.555,0 -1.006,0.443 -1.006,0.987l0,1.979c0,0.545 0.451,0.987 1.006,0.987l2.011,0c0.555,0 1.005,-0.442 1.005,-0.987l0,-1.979Zm30.165,0c-0,-0.544 -0.451,-0.987 -1.006,-0.987l-2.011,0c-0.555,0 -1.005,0.443 -1.005,0.987l-0,1.979c-0,0.545 0.45,0.987 1.005,0.987l2.011,0c0.555,0 1.006,-0.442 1.006,-0.987l-0,-1.979Zm-10.055,0c-0,-0.544 -0.451,-0.987 -1.006,-0.987l-2.011,0c-0.555,0 -1.005,0.443 -1.005,0.987l-0,1.979c-0,0.545 0.45,0.987 1.005,0.987l2.011,0c0.555,0 1.006,-0.442 1.006,-0.987l-0,-1.979Zm-15.082,0c-0,-0.544 -0.451,-0.987 -1.006,-0.987l-2.011,0c-0.555,0 -1.005,0.443 -1.005,0.987l-0,1.979c-0,0.545 0.45,0.987 1.005,0.987l2.011,0c0.555,0 1.006,-0.442 1.006,-0.987l-0,-1.979Zm-30.165,0c0,-0.544 -0.45,-0.987 -1.005,-0.987l-2.011,0c-0.555,0 -1.006,0.443 -1.006,0.987l0,1.979c0,0.545 0.451,0.987 1.006,0.987l2.011,0c0.555,0 1.005,-0.442 1.005,-0.987l0,-1.979Zm50.274,-0.004c0,-0.545 -0.45,-0.987 -1.005,-0.987l-2.011,-0c-0.555,-0 -1.006,0.442 -1.006,0.987l0,1.979c0,0.545 0.451,0.987 1.006,0.987l2.011,-0c0.555,-0 1.005,-0.442 1.005,-0.987l0,-1.979Zm-10.055,-0c0,-0.545 -0.45,-0.987 -1.005,-0.987l-2.011,-0c-0.555,-0 -1.006,0.442 -1.006,0.987l0,1.979c0,0.545 0.451,0.987 1.006,0.987l2.011,-0c0.555,-0 1.005,-0.442 1.005,-0.987l0,-1.979Zm-20.109,-0c-0,-0.545 -0.451,-0.987 -1.006,-0.987l-2.011,-0c-0.555,-0 -1.005,0.442 -1.005,0.987l-0,1.979c-0,0.545 0.45,0.987 1.005,0.987l2.011,-0c0.555,-0 1.006,-0.442 1.006,-0.987l-0,-1.979Zm-25.137,-4.901c-0,-0.544 -0.451,-0.987 -1.006,-0.987l-2.011,0c-0.555,0 -1.005,0.443 -1.005,0.987l-0,1.979c-0,0.545 0.45,0.987 1.005,0.987l2.011,0c0.555,0 1.006,-0.442 1.006,-0.987l-0,-1.979Zm40.219,-0.004c-0,-0.545 -0.451,-0.987 -1.006,-0.987l-2.011,-0c-0.554,-0 -1.005,0.442 -1.005,0.987l-0,1.979c-0,0.545 0.451,0.987 1.005,0.987l2.011,-0c0.555,-0 1.006,-0.442 1.006,-0.987l-0,-1.979Zm-30.165,0c0,-0.545 -0.45,-0.987 -1.005,-0.987l-2.011,-0c-0.555,-0 -1.005,0.442 -1.005,0.987l-0,1.979c-0,0.545 0.45,0.987 1.005,0.987l2.011,-0c0.555,-0 1.005,-0.442 1.005,-0.987l0,-1.979Zm10.055,0c0,-0.545 -0.45,-0.987 -1.005,-0.987l-2.011,-0c-0.555,-0 -1.006,0.442 -1.006,0.987l0,1.979c0,0.545 0.451,0.987 1.006,0.987l2.011,-0c0.555,-0 1.005,-0.442 1.005,-0.987l0,-1.979Zm10.055,-0.004c0,-0.545 -0.45,-0.988 -1.005,-0.988l-2.011,0c-0.555,0 -1.006,0.443 -1.006,0.988l0,1.978c0,0.545 0.451,0.988 1.006,0.988l2.011,-0c0.555,-0 1.005,-0.443 1.005,-0.988l0,-1.978Zm-15.082,-0c-0,-0.545 -0.451,-0.988 -1.006,-0.988l-2.011,0c-0.554,0 -1.005,0.443 -1.005,0.988l-0,1.978c-0,0.545 0.451,0.988 1.005,0.988l2.011,-0c0.555,-0 1.006,-0.443 1.006,-0.988l-0,-1.978Zm-10.055,-0c0,-0.545 -0.45,-0.988 -1.005,-0.988l-2.011,0c-0.555,0 -1.006,0.443 -1.006,0.988l0,1.978c0,0.545 0.451,0.988 1.006,0.988l2.011,-0c0.555,-0 1.005,-0.443 1.005,-0.988l0,-1.978Zm55.302,-0c-0,-0.545 -0.451,-0.988 -1.006,-0.988l-2.011,0c-0.555,0 -1.005,0.443 -1.005,0.988l-0,1.978c-0,0.545 0.45,0.988 1.005,0.988l2.011,-0c0.555,-0 1.006,-0.443 1.006,-0.988l-0,-1.978Zm-10.055,-0c-0,-0.545 -0.451,-0.988 -1.006,-0.988l-2.011,0c-0.555,0 -1.005,0.443 -1.005,0.988l-0,1.978c-0,0.545 0.45,0.988 1.005,0.988l2.011,-0c0.555,-0 1.006,-0.443 1.006,-0.988l-0,-1.978Zm-15.082,-0c-0,-0.545 -0.451,-0.988 -1.006,-0.988l-2.011,0c-0.555,0 -1.005,0.443 -1.005,0.988l-0,1.978c-0,0.545 0.45,0.988 1.005,0.988l2.011,-0c0.555,-0 1.006,-0.443 1.006,-0.988l-0,-1.978Zm20.109,-0.005c0,-0.545 -0.45,-0.987 -1.005,-0.987l-2.011,0c-0.555,0 -1.006,0.442 -1.006,0.987l0,1.979c0,0.545 0.451,0.987 1.006,0.987l2.011,0c0.555,0 1.005,-0.442 1.005,-0.987l0,-1.979Zm-10.055,0c0,-0.545 -0.45,-0.987 -1.005,-0.987l-2.011,0c-0.555,0 -1.006,0.442 -1.006,0.987l0,1.979c0,0.545 0.451,0.987 1.006,0.987l2.011,0c0.555,0 1.005,-0.442 1.005,-0.987l0,-1.979Zm-20.109,0c-0,-0.545 -0.451,-0.987 -1.006,-0.987l-2.011,0c-0.555,0 -1.005,0.442 -1.005,0.987l-0,1.979c-0,0.545 0.45,0.987 1.005,0.987l2.011,0c0.555,0 1.006,-0.442 1.006,-0.987l-0,-1.979Zm-25.137,-4.918c-0,-0.545 -0.451,-0.987 -1.006,-0.987l-2.011,-0c-0.555,-0 -1.005,0.442 -1.005,0.987l-0,1.979c-0,0.545 0.45,0.987 1.005,0.987l2.011,-0c0.555,-0 1.006,-0.442 1.006,-0.987l-0,-1.979Zm40.219,-0.004c-0,-0.545 -0.451,-0.988 -1.006,-0.988l-2.011,0c-0.554,0 -1.005,0.443 -1.005,0.988l-0,1.978c-0,0.545 0.451,0.987 1.005,0.987l2.011,0c0.555,0 1.006,-0.442 1.006,-0.987l-0,-1.978Zm-20.11,-0c0,-0.545 -0.45,-0.988 -1.005,-0.988l-2.011,0c-0.555,0 -1.006,0.443 -1.006,0.988l0,1.978c0,0.545 0.451,0.987 1.006,0.987l2.011,0c0.555,0 1.005,-0.442 1.005,-0.987l0,-1.978Zm-10.055,-0c0,-0.545 -0.45,-0.988 -1.005,-0.988l-2.011,0c-0.555,0 -1.005,0.443 -1.005,0.988l-0,1.978c-0,0.545 0.45,0.987 1.005,0.987l2.011,0c0.555,0 1.005,-0.442 1.005,-0.987l0,-1.978Zm5.028,-0.005c-0,-0.545 -0.451,-0.987 -1.006,-0.987l-2.011,-0c-0.554,-0 -1.005,0.442 -1.005,0.987l-0,1.979c-0,0.545 0.451,0.987 1.005,0.987l2.011,0c0.555,0 1.006,-0.442 1.006,-0.987l-0,-1.979Zm15.082,0c0,-0.545 -0.45,-0.987 -1.005,-0.987l-2.011,-0c-0.555,-0 -1.006,0.442 -1.006,0.987l0,1.979c0,0.545 0.451,0.987 1.006,0.987l2.011,0c0.555,0 1.005,-0.442 1.005,-0.987l0,-1.979Zm-25.137,0c0,-0.545 -0.45,-0.987 -1.005,-0.987l-2.011,-0c-0.555,-0 -1.006,0.442 -1.006,0.987l0,1.979c0,0.545 0.451,0.987 1.006,0.987l2.011,0c0.555,0 1.005,-0.442 1.005,-0.987l0,-1.979Zm55.302,0c-0,-0.545 -0.451,-0.987 -1.006,-0.987l-2.011,-0c-0.555,-0 -1.005,0.442 -1.005,0.987l-0,1.979c-0,0.545 0.45,0.987 1.005,0.987l2.011,0c0.555,0 1.006,-0.442 1.006,-0.987l-0,-1.979Zm-10.055,0c-0,-0.545 -0.451,-0.987 -1.006,-0.987l-2.011,-0c-0.555,-0 -1.005,0.442 -1.005,0.987l-0,1.979c-0,0.545 0.45,0.987 1.005,0.987l2.011,0c0.555,0 1.006,-0.442 1.006,-0.987l-0,-1.979Zm-15.082,0c-0,-0.545 -0.451,-0.987 -1.006,-0.987l-2.011,-0c-0.555,-0 -1.005,0.442 -1.005,0.987l-0,1.979c-0,0.545 0.45,0.987 1.005,0.987l2.011,0c0.555,0 1.006,-0.442 1.006,-0.987l-0,-1.979Zm10.054,-0.004c0,-0.545 -0.45,-0.987 -1.005,-0.987l-2.011,-0c-0.555,-0 -1.006,0.442 -1.006,0.987l0,1.978c0,0.545 0.451,0.988 1.006,0.988l2.011,-0c0.555,-0 1.005,-0.443 1.005,-0.988l0,-1.978Zm-20.109,-0c-0,-0.545 -0.451,-0.987 -1.006,-0.987l-2.011,-0c-0.555,-0 -1.005,0.442 -1.005,0.987l-0,1.978c-0,0.545 0.45,0.988 1.005,0.988l2.011,-0c0.555,-0 1.006,-0.443 1.006,-0.988l-0,-1.978Zm30.164,-0c0,-0.545 -0.45,-0.987 -1.005,-0.987l-2.011,-0c-0.555,-0 -1.006,0.442 -1.006,0.987l0,1.978c0,0.545 0.451,0.988 1.006,0.988l2.011,-0c0.555,-0 1.005,-0.443 1.005,-0.988l0,-1.978Zm-55.301,-4.941c-0,-0.544 -0.451,-0.987 -1.006,-0.987l-2.011,0c-0.555,0 -1.005,0.443 -1.005,0.987l-0,1.979c-0,0.545 0.45,0.987 1.005,0.987l2.011,0c0.555,0 1.006,-0.442 1.006,-0.987l-0,-1.979Zm40.219,-0.004c-0,-0.545 -0.451,-0.987 -1.006,-0.987l-2.011,-0c-0.554,-0 -1.005,0.442 -1.005,0.987l-0,1.979c-0,0.545 0.451,0.987 1.005,0.987l2.011,-0c0.555,-0 1.006,-0.442 1.006,-0.987l-0,-1.979Zm-20.11,0c0,-0.545 -0.45,-0.987 -1.005,-0.987l-2.011,-0c-0.555,-0 -1.006,0.442 -1.006,0.987l0,1.979c0,0.545 0.451,0.987 1.006,0.987l2.011,-0c0.555,-0 1.005,-0.442 1.005,-0.987l0,-1.979Zm-10.055,0c0,-0.545 -0.45,-0.987 -1.005,-0.987l-2.011,-0c-0.555,-0 -1.005,0.442 -1.005,0.987l-0,1.979c-0,0.545 0.45,0.987 1.005,0.987l2.011,-0c0.555,-0 1.005,-0.442 1.005,-0.987l0,-1.979Zm5.028,-0.004c-0,-0.545 -0.451,-0.988 -1.006,-0.988l-2.011,0c-0.554,0 -1.005,0.443 -1.005,0.988l-0,1.978c-0,0.545 0.451,0.988 1.005,0.988l2.011,-0c0.555,-0 1.006,-0.443 1.006,-0.988l-0,-1.978Zm15.082,-0c0,-0.545 -0.45,-0.988 -1.005,-0.988l-2.011,0c-0.555,0 -1.006,0.443 -1.006,0.988l0,1.978c0,0.545 0.451,0.988 1.006,0.988l2.011,-0c0.555,-0 1.005,-0.443 1.005,-0.988l0,-1.978Zm-25.137,-0c0,-0.545 -0.45,-0.988 -1.005,-0.988l-2.011,0c-0.555,0 -1.006,0.443 -1.006,0.988l0,1.978c0,0.545 0.451,0.988 1.006,0.988l2.011,-0c0.555,-0 1.005,-0.443 1.005,-0.988l0,-1.978Zm45.247,-0c-0,-0.545 -0.451,-0.988 -1.006,-0.988l-2.011,0c-0.555,0 -1.005,0.443 -1.005,0.988l-0,1.978c-0,0.545 0.45,0.988 1.005,0.988l2.011,-0c0.555,-0 1.006,-0.443 1.006,-0.988l-0,-1.978Zm-15.082,-0c-0,-0.545 -0.451,-0.988 -1.006,-0.988l-2.011,0c-0.555,0 -1.005,0.443 -1.005,0.988l-0,1.978c-0,0.545 0.45,0.988 1.005,0.988l2.011,-0c0.555,-0 1.006,-0.443 1.006,-0.988l-0,-1.978Zm25.137,-0c-0,-0.545 -0.451,-0.988 -1.006,-0.988l-2.011,0c-0.555,0 -1.005,0.443 -1.005,0.988l-0,1.978c-0,0.545 0.45,0.988 1.005,0.988l2.011,-0c0.555,-0 1.006,-0.443 1.006,-0.988l-0,-1.978Zm-35.192,-0.005c-0,-0.545 -0.451,-0.987 -1.006,-0.987l-2.011,0c-0.555,0 -1.005,0.442 -1.005,0.987l-0,1.979c-0,0.545 0.45,0.987 1.005,0.987l2.011,0c0.555,0 1.006,-0.442 1.006,-0.987l-0,-1.979Zm20.109,0c0,-0.545 -0.45,-0.987 -1.005,-0.987l-2.011,0c-0.555,0 -1.006,0.442 -1.006,0.987l0,1.979c0,0.545 0.451,0.987 1.006,0.987l2.011,0c0.555,0 1.005,-0.442 1.005,-0.987l0,-1.979Zm10.055,0c0,-0.545 -0.45,-0.987 -1.005,-0.987l-2.011,0c-0.555,0 -1.006,0.442 -1.006,0.987l0,1.979c0,0.545 0.451,0.987 1.006,0.987l2.011,0c0.555,0 1.005,-0.442 1.005,-0.987l0,-1.979Z"/></clipPath><g clip-path="url(#_clip1)"><rect x="-29.88" y="-17.433" width="143.21" height="89.255" style="fill:#252324;"/></g><path d="M69.002,-0.006l-0.999,-0l0,1.989c0,0.551 -0.447,0.998 -0.998,0.998l-1.997,-0c-0.551,-0 -0.999,-0.447 -0.999,-0.998l0,-1.989l-0.998,-0l-0,1.985c-0,0.55 -0.448,0.997 -0.999,0.997l-1.997,0c-0.551,0 -0.998,-0.447 -0.998,-0.997l-0,-1.985l-0.999,-0l0,1.989c0,0.551 -0.447,0.998 -0.998,0.998l-1.997,-0c-0.551,-0 -0.999,-0.447 -0.999,-0.998l0,-1.989l-0.998,-0l0,1.985c0,0.55 -0.447,0.997 -0.998,0.997l-1.997,0c-0.551,0 -0.999,-0.447 -0.999,-0.997l0,-1.985l-0.998,-0l-0,1.994c-0,0.55 -0.448,0.997 -0.999,0.997l-1.997,0c-0.551,0 -0.998,-0.447 -0.998,-0.997l-0,-1.994l-0.999,-0l0,1.989c0,0.551 -0.447,0.998 -0.998,0.998l-1.997,-0c-0.551,-0 -0.999,-0.447 -0.999,-0.998l0,-1.989l-0.998,-0l-0,1.989c-0,0.551 -0.447,0.998 -0.999,0.998l-1.996,-0c-0.552,-0 -0.999,-0.447 -0.999,-0.998l0,-1.989l-0.998,-0l-0,1.985c-0,0.55 -0.448,0.997 -0.999,0.997l-1.997,0c-0.551,0 -0.998,-0.447 -0.998,-0.997l-0,-1.985l-0.999,-0l0,1.994c0,0.55 -0.447,0.997 -0.998,0.997l-1.997,0c-0.551,0 -0.999,-0.447 -0.999,-0.997l0,-1.994l-0.998,-0l-0,1.989c-0,0.551 -0.448,0.998 -0.999,0.998l-1.997,-0c-0.551,-0 -0.998,-0.447 -0.998,-0.998l0,-1.989l-0.998,-0l-0,1.994c-0,0.55 -0.448,0.997 -0.999,0.997l-1.997,0c-0.551,0 -0.998,-0.447 -0.998,-0.997l-0,-1.994l-0.999,-0l0,1.989c0,0.551 -0.447,0.998 -0.998,0.998l-1.997,-0c-0.551,-0 -0.999,-0.447 -0.999,-0.998l0,-1.989l-0.998,-0c-0,-0 -0,1.998 -0,1.998c-0,0.551 -0.448,0.997 -0.999,0.997l-1.997,0c-0.551,0 -0.998,-0.446 -0.998,-0.997l-0,-1.998c-0,-0 -0.999,-0 -0.999,-0l0,1.994c0,0.55 -0.447,0.997 -0.998,0.997l-1.997,0c-0.036,0 -0.072,-0.002 -0.107,-0.006l-0,1c0.035,-0.004 0.071,-0.006 0.107,-0.006l1.997,0c0.551,0 0.998,0.447 0.998,0.997l0,1.999c0,0.55 -0.447,0.997 -0.998,0.997l-1.997,0c-0.036,0 -0.072,-0.002 -0.107,-0.006l-0,1.023c0.035,-0.004 0.071,-0.006 0.107,-0.006l1.997,-0c0.551,-0 0.998,0.447 0.998,0.997l0,1.999c0,0.55 -0.447,0.997 -0.998,0.997l-1.997,-0c-0.036,-0 -0.072,-0.002 -0.107,-0.006l-0,1c0.035,-0.004 0.071,-0.006 0.107,-0.006l1.997,0c0.551,0 0.998,0.447 0.998,0.997l0,1.999c0,0.55 -0.447,0.997 -0.998,0.997l-1.997,0c-0.036,0 -0.072,-0.002 -0.107,-0.006l-0,0.982c0.035,-0.004 0.071,-0.006 0.107,-0.006l1.997,0c0.551,0 0.998,0.447 0.998,0.998l0,1.998c0,0.551 -0.447,0.998 -0.998,0.998l-1.997,-0c-0.036,-0 -0.072,-0.002 -0.107,-0.006l-0,1c0.035,-0.004 0.071,-0.006 0.107,-0.006l1.997,-0c0.551,-0 0.998,0.447 0.998,0.997l0,1.999c0,0.55 -0.447,0.997 -0.998,0.997l-1.997,-0c-0.036,-0 -0.072,-0.002 -0.107,-0.006l-0,1.022c0.035,-0.004 0.071,-0.006 0.107,-0.006l1.997,0c0.551,0 0.998,0.447 0.998,0.997l0,1.999c0,0.551 -0.447,0.997 -0.998,0.997l-1.997,0c-0.036,0 -0.072,-0.002 -0.107,-0.005l-0,0.999c0.035,-0.004 0.071,-0.005 0.107,-0.005l1.997,-0c0.551,-0 0.998,0.446 0.998,0.997l0,1.998c0,0.551 -0.447,0.998 -0.998,0.998l-1.997,-0c-0.036,-0 -0.072,-0.002 -0.107,-0.006l-0,0.991c0.035,-0.004 0.071,-0.006 0.107,-0.006l1.997,-0c0.551,-0 0.998,0.447 0.998,0.997l0,1.999c0,0.55 -0.447,0.997 -0.998,0.997l-1.997,-0c-0.036,-0 -0.072,-0.002 -0.107,-0.006l-0,1.022c0.035,-0.004 0.071,-0.006 0.107,-0.006l1.997,0c0.551,0 0.998,0.447 0.998,0.998l0,1.998c0,0.551 -0.447,0.997 -0.998,0.997l-1.997,0c-0.036,0 -0.072,-0.001 -0.107,-0.005l-0,0.999c0.035,-0.003 0.071,-0.005 0.107,-0.005l1.997,-0c0.551,-0 0.998,0.446 0.998,0.997l0,0.158l0.999,0l-0,-0.154c-0,-0.55 0.447,-0.997 0.998,-0.997l1.997,0c0.551,0 0.999,0.447 0.999,0.997l-0,0.154l0.998,0l0,-0.163c0,-0.55 0.448,-0.997 0.999,-0.997l1.997,0c0.551,0 0.998,0.447 0.998,0.997l0,0.163l0.999,0l-0,-0.158c-0,-0.551 0.447,-0.997 0.998,-0.997l1.997,-0c0.551,-0 0.999,0.446 0.999,0.997l-0,0.158l0.998,0l0,-0.163c0,-0.55 0.447,-0.997 0.998,-0.997l1.997,0c0.551,0 0.999,0.447 0.999,0.997l-0,0.163l0.998,0l0,-0.158c0,-0.551 0.448,-0.997 0.999,-0.997l1.997,-0c0.551,-0 0.998,0.446 0.998,0.997l0,0.158l0.999,0l-0,-0.167c-0,-0.55 0.447,-0.997 0.998,-0.997l1.997,-0c0.551,-0 0.999,0.447 0.999,0.997l-0,0.167l0.998,0l0,-0.163c0,-0.55 0.447,-0.997 0.999,-0.997l1.996,0c0.552,0 0.999,0.447 0.999,0.997l-0,0.163l0.998,0l0,-0.163c0,-0.55 0.448,-0.997 0.999,-0.997l1.997,0c0.551,0 0.998,0.447 0.998,0.997l0,0.163l0.999,0l-0,-0.158c-0,-0.551 0.447,-0.997 0.998,-0.997l1.997,-0c0.551,-0 0.999,0.446 0.999,0.997l-0,0.158l0.998,0l0,-0.167c0,-0.55 0.448,-0.997 0.999,-0.997l1.997,-0c0.551,-0 0.998,0.447 0.998,0.997l0,0.167l0.998,0l0,-0.163c0,-0.55 0.448,-0.997 0.999,-0.997l1.997,0c0.551,0 0.998,0.447 0.998,0.997l0,0.163l0.999,0l-0,-0.167c-0,-0.55 0.447,-0.997 0.998,-0.997l1.997,-0c0.551,-0 0.999,0.447 0.999,0.997l-0,0.167l0.998,0l0,-0.163c0,-0.55 0.448,-0.997 0.999,-0.997l1.997,0c0.551,0 0.998,0.447 0.998,0.997l0,0.163l0.999,0l-0,-0.163c-0,-0.55 0.447,-0.997 0.998,-0.997l-0,-0.988c-0.551,-0 -0.998,-0.447 -0.998,-0.997l-0,-1.999c-0,-0.55 0.447,-0.997 0.998,-0.997l-0,-1.011c-0.551,0 -0.998,-0.446 -0.998,-0.997l-0,-1.998c-0,-0.551 0.447,-0.998 0.998,-0.998l-0,-0.979c-0.551,0 -0.998,-0.447 -0.998,-0.997l-0,-1.999c-0,-0.55 0.447,-0.997 0.998,-0.997l-0,-0.988c-0.551,-0 -0.998,-0.447 -0.998,-0.997l-0,-1.999c-0,-0.55 0.447,-0.997 0.998,-0.997l-0,-1.011c-0.551,0 -0.998,-0.446 -0.998,-0.997l-0,-1.999c-0,-0.55 0.447,-0.997 0.998,-0.997l-0,-0.988c-0.551,0 -0.998,-0.447 -0.998,-0.997l-0,-1.999c-0,-0.55 0.447,-0.997 0.998,-0.997l-0,-0.97c-0.551,-0 -0.998,-0.447 -0.998,-0.998l-0,-1.998c-0,-0.551 0.447,-0.997 0.998,-0.997l-0,-0.989c-0.551,0 -0.998,-0.446 -0.998,-0.997l-0,-1.999c-0,-0.55 0.447,-0.997 0.998,-0.997l-0,-1.01c-0.551,-0 -0.998,-0.447 -0.998,-0.997l-0,-1.999c-0,-0.55 0.447,-0.997 0.998,-0.997l-0,-0.988c-0.551,-0 -0.998,-0.447 -0.998,-0.998l-0,-1.989Zm-60.907,44.871c-0,-0.55 -0.448,-0.997 -0.999,-0.997l-1.997,-0c-0.551,-0 -0.998,0.447 -0.998,0.997l-0,1.999c-0,0.55 0.447,0.997 0.998,0.997l1.997,-0c0.551,-0 0.999,-0.447 0.999,-0.997l-0,-1.999Zm39.939,-0.004c-0,-0.551 -0.448,-0.998 -0.999,-0.998l-1.997,0c-0.551,0 -0.998,0.447 -0.998,0.998l-0,1.998c-0,0.551 0.447,0.997 0.998,0.997l1.997,0c0.551,0 0.999,-0.446 0.999,-0.997l-0,-1.998Zm-19.97,-0c0,-0.551 -0.447,-0.998 -0.998,-0.998l-1.997,0c-0.551,0 -0.999,0.447 -0.999,0.998l0,1.998c0,0.551 0.448,0.997 0.999,0.997l1.997,0c0.551,0 0.998,-0.446 0.998,-0.997l0,-1.998Zm-9.984,-0c-0,-0.551 -0.448,-0.998 -0.999,-0.998l-1.997,0c-0.551,0 -0.998,0.447 -0.998,0.998l-0,1.998c-0,0.551 0.447,0.997 0.998,0.997l1.997,0c0.551,0 0.999,-0.446 0.999,-0.997l-0,-1.998Zm39.938,-0.005c0,-0.55 -0.447,-0.997 -0.998,-0.997l-1.997,-0c-0.551,-0 -0.999,0.447 -0.999,0.997l0,1.999c0,0.55 0.448,0.997 0.999,0.997l1.997,-0c0.551,-0 0.998,-0.447 0.998,-0.997l0,-1.999Zm-14.977,0c0,-0.55 -0.447,-0.997 -0.998,-0.997l-1.997,-0c-0.551,-0 -0.999,0.447 -0.999,0.997l0,1.999c0,0.55 0.448,0.997 0.999,0.997l1.997,-0c0.551,-0 0.998,-0.447 0.998,-0.997l0,-1.999Zm-19.969,0c-0,-0.55 -0.448,-0.997 -0.999,-0.997l-1.997,-0c-0.551,-0 -0.998,0.447 -0.998,0.997l0,1.999c0,0.55 0.447,0.997 0.998,0.997l1.997,-0c0.551,-0 0.999,-0.447 0.999,-0.997l-0,-1.999Zm14.977,0c-0,-0.55 -0.447,-0.997 -0.999,-0.997l-1.996,-0c-0.552,-0 -0.999,0.447 -0.999,0.997l0,1.999c0,0.55 0.447,0.997 0.999,0.997l1.996,-0c0.552,-0 0.999,-0.447 0.999,-0.997l-0,-1.999Zm29.954,0c0,-0.55 -0.447,-0.997 -0.998,-0.997l-1.997,-0c-0.551,-0 -0.999,0.447 -0.999,0.997l0,1.999c0,0.55 0.448,0.997 0.999,0.997l1.997,-0c0.551,-0 0.998,-0.447 0.998,-0.997l0,-1.999Zm-54.916,0c0,-0.55 -0.447,-0.997 -0.998,-0.997l-1.997,-0c-0.551,-0 -0.999,0.447 -0.999,0.997l0,1.999c0,0.55 0.448,0.997 0.999,0.997l1.997,-0c0.551,-0 0.998,-0.447 0.998,-0.997l0,-1.999Zm19.97,-0.004c-0,-0.551 -0.448,-0.997 -0.999,-0.997l-1.997,-0c-0.551,-0 -0.998,0.446 -0.998,0.997l-0,1.998c-0,0.551 0.447,0.998 0.998,0.998l1.997,-0c0.551,-0 0.999,-0.447 0.999,-0.998l-0,-1.998Zm29.954,-0c-0,-0.551 -0.448,-0.997 -0.999,-0.997l-1.997,-0c-0.551,-0 -0.998,0.446 -0.998,0.997l-0,1.998c-0,0.551 0.447,0.998 0.998,0.998l1.997,-0c0.551,-0 0.999,-0.447 0.999,-0.998l-0,-1.998Zm-9.985,-0c0,-0.551 -0.447,-0.997 -0.998,-0.997l-1.997,-0c-0.551,-0 -0.999,0.446 -0.999,0.997l0,1.998c0,0.551 0.448,0.998 0.999,0.998l1.997,-0c0.551,-0 0.998,-0.447 0.998,-0.998l0,-1.998Zm-44.931,-4.991c-0,-0.55 -0.448,-0.997 -0.999,-0.997l-1.997,0c-0.551,0 -0.998,0.447 -0.998,0.997l-0,1.999c-0,0.551 0.447,0.997 0.998,0.997l1.997,0c0.551,0 0.999,-0.446 0.999,-0.997l-0,-1.999Zm39.939,-0.004c-0,-0.55 -0.448,-0.997 -0.999,-0.997l-1.997,-0c-0.551,-0 -0.998,0.447 -0.998,0.997l-0,1.999c-0,0.55 0.447,0.997 0.998,0.997l1.997,-0c0.551,-0 0.999,-0.447 0.999,-0.997l-0,-1.999Zm-19.97,0c0,-0.55 -0.447,-0.997 -0.998,-0.997l-1.997,-0c-0.551,-0 -0.999,0.447 -0.999,0.997l0,1.999c0,0.55 0.448,0.997 0.999,0.997l1.997,-0c0.551,-0 0.998,-0.447 0.998,-0.997l0,-1.999Zm-9.984,0c-0,-0.55 -0.448,-0.997 -0.999,-0.997l-1.997,-0c-0.551,-0 -0.998,0.447 -0.998,0.997l-0,1.999c-0,0.55 0.447,0.997 0.998,0.997l1.997,-0c0.551,-0 0.999,-0.447 0.999,-0.997l-0,-1.999Zm19.969,-0.004c-0,-0.551 -0.447,-0.998 -0.999,-0.998l-1.996,0c-0.552,0 -0.999,0.447 -0.999,0.998l0,1.998c0,0.551 0.447,0.997 0.999,0.997l1.996,0c0.552,0 0.999,-0.446 0.999,-0.997l-0,-1.998Zm-14.977,-0c-0,-0.551 -0.448,-0.998 -0.999,-0.998l-1.997,0c-0.551,0 -0.998,0.447 -0.998,0.998l0,1.998c0,0.551 0.447,0.997 0.998,0.997l1.997,0c0.551,0 0.999,-0.446 0.999,-0.997l-0,-1.998Zm-9.985,-0c0,-0.551 -0.447,-0.998 -0.998,-0.998l-1.997,0c-0.551,0 -0.999,0.447 -0.999,0.998l0,1.998c0,0.551 0.448,0.997 0.999,0.997l1.997,0c0.551,0 0.998,-0.446 0.998,-0.997l0,-1.998Zm54.916,-0c0,-0.551 -0.447,-0.998 -0.998,-0.998l-1.997,0c-0.551,0 -0.999,0.447 -0.999,0.998l0,1.998c0,0.551 0.448,0.997 0.999,0.997l1.997,0c0.551,0 0.998,-0.446 0.998,-0.997l0,-1.998Zm-24.962,-0c0,-0.551 -0.447,-0.998 -0.998,-0.998l-1.997,0c-0.551,0 -0.999,0.447 -0.999,0.998l0,1.998c0,0.551 0.448,0.997 0.999,0.997l1.997,0c0.551,0 0.998,-0.446 0.998,-0.997l0,-1.998Zm14.977,-0c0,-0.551 -0.447,-0.998 -0.998,-0.998l-1.997,0c-0.551,0 -0.999,0.447 -0.999,0.998l0,1.998c0,0.551 0.448,0.997 0.999,0.997l1.997,0c0.551,0 0.998,-0.446 0.998,-0.997l0,-1.998Zm4.993,-0.005c-0,-0.55 -0.448,-0.997 -0.999,-0.997l-1.997,-0c-0.551,-0 -0.998,0.447 -0.998,0.997l-0,1.999c-0,0.55 0.447,0.997 0.998,0.997l1.997,0c0.551,0 0.999,-0.447 0.999,-0.997l-0,-1.999Zm-29.954,0c-0,-0.55 -0.448,-0.997 -0.999,-0.997l-1.997,-0c-0.551,-0 -0.998,0.447 -0.998,0.997l-0,1.999c-0,0.55 0.447,0.997 0.998,0.997l1.997,0c0.551,0 0.999,-0.447 0.999,-0.997l-0,-1.999Zm19.969,0c0,-0.55 -0.447,-0.997 -0.998,-0.997l-1.997,-0c-0.551,-0 -0.999,0.447 -0.999,0.997l0,1.999c0,0.55 0.448,0.997 0.999,0.997l1.997,0c0.551,0 0.998,-0.447 0.998,-0.997l0,-1.999Zm-44.931,-4.959c-0,-0.55 -0.448,-0.997 -0.999,-0.997l-1.997,-0c-0.551,-0 -0.998,0.447 -0.998,0.997l-0,1.999c-0,0.55 0.447,0.997 0.998,0.997l1.997,0c0.551,0 0.999,-0.447 0.999,-0.997l-0,-1.999Zm39.939,-0.004c-0,-0.551 -0.448,-0.997 -0.999,-0.997l-1.997,-0c-0.551,-0 -0.998,0.446 -0.998,0.997l-0,1.998c-0,0.551 0.447,0.998 0.998,0.998l1.997,-0c0.551,-0 0.999,-0.447 0.999,-0.998l-0,-1.998Zm-19.97,-0c0,-0.551 -0.447,-0.997 -0.998,-0.997l-1.997,-0c-0.551,-0 -0.999,0.446 -0.999,0.997l0,1.998c0,0.551 0.448,0.998 0.999,0.998l1.997,-0c0.551,-0 0.998,-0.447 0.998,-0.998l0,-1.998Zm-9.984,-0c-0,-0.551 -0.448,-0.997 -0.999,-0.997l-1.997,-0c-0.551,-0 -0.998,0.446 -0.998,0.997l-0,1.998c-0,0.551 0.447,0.998 0.998,0.998l1.997,-0c0.551,-0 0.999,-0.447 0.999,-0.998l-0,-1.998Zm4.992,-0.005c-0,-0.55 -0.448,-0.997 -0.999,-0.997l-1.997,0c-0.551,0 -0.998,0.447 -0.998,0.997l0,1.999c0,0.55 0.447,0.997 0.998,0.997l1.997,0c0.551,0 0.999,-0.447 0.999,-0.997l-0,-1.999Zm14.977,0c-0,-0.55 -0.447,-0.997 -0.999,-0.997l-1.996,0c-0.552,0 -0.999,0.447 -0.999,0.997l0,1.999c0,0.55 0.447,0.997 0.999,0.997l1.996,0c0.552,0 0.999,-0.447 0.999,-0.997l-0,-1.999Zm-24.962,0c0,-0.55 -0.447,-0.997 -0.998,-0.997l-1.997,0c-0.551,0 -0.999,0.447 -0.999,0.997l0,1.999c0,0.55 0.448,0.997 0.999,0.997l1.997,0c0.551,0 0.998,-0.447 0.998,-0.997l0,-1.999Zm54.916,0c0,-0.55 -0.447,-0.997 -0.998,-0.997l-1.997,0c-0.551,0 -0.999,0.447 -0.999,0.997l0,1.999c0,0.55 0.448,0.997 0.999,0.997l1.997,0c0.551,0 0.998,-0.447 0.998,-0.997l0,-1.999Zm-9.985,0c0,-0.55 -0.447,-0.997 -0.998,-0.997l-1.997,0c-0.551,0 -0.999,0.447 -0.999,0.997l0,1.999c0,0.55 0.448,0.997 0.999,0.997l1.997,0c0.551,0 0.998,-0.447 0.998,-0.997l0,-1.999Zm-14.977,0c0,-0.55 -0.447,-0.997 -0.998,-0.997l-1.997,0c-0.551,0 -0.999,0.447 -0.999,0.997l0,1.999c0,0.55 0.448,0.997 0.999,0.997l1.997,0c0.551,0 0.998,-0.447 0.998,-0.997l0,-1.999Zm19.97,-0.004c-0,-0.551 -0.448,-0.997 -0.999,-0.997l-1.997,-0c-0.551,-0 -0.998,0.446 -0.998,0.997l-0,1.999c-0,0.55 0.447,0.997 0.998,0.997l1.997,-0c0.551,-0 0.999,-0.447 0.999,-0.997l-0,-1.999Zm-9.985,-0c0,-0.551 -0.447,-0.997 -0.998,-0.997l-1.997,-0c-0.551,-0 -0.999,0.446 -0.999,0.997l0,1.999c0,0.55 0.448,0.997 0.999,0.997l1.997,-0c0.551,-0 0.998,-0.447 0.998,-0.997l0,-1.999Zm-19.969,-0c-0,-0.551 -0.448,-0.997 -0.999,-0.997l-1.997,-0c-0.551,-0 -0.998,0.446 -0.998,0.997l-0,1.999c-0,0.55 0.447,0.997 0.998,0.997l1.997,-0c0.551,-0 0.999,-0.447 0.999,-0.997l-0,-1.999Zm-24.962,-4.968c-0,-0.55 -0.448,-0.997 -0.999,-0.997l-1.997,-0c-0.551,-0 -0.998,0.447 -0.998,0.997l-0,1.999c-0,0.55 0.447,0.997 0.998,0.997l1.997,-0c0.551,-0 0.999,-0.447 0.999,-0.997l-0,-1.999Zm19.969,-0.005c0,-0.55 -0.447,-0.997 -0.998,-0.997l-1.997,0c-0.551,0 -0.999,0.447 -0.999,0.997l0,1.999c0,0.551 0.448,0.997 0.999,0.997l1.997,0c0.551,0 0.998,-0.446 0.998,-0.997l0,-1.999Zm19.97,0c-0,-0.55 -0.448,-0.997 -0.999,-0.997l-1.997,0c-0.551,0 -0.998,0.447 -0.998,0.997l-0,1.999c-0,0.551 0.447,0.997 0.998,0.997l1.997,0c0.551,0 0.999,-0.446 0.999,-0.997l-0,-1.999Zm-29.954,0c-0,-0.55 -0.448,-0.997 -0.999,-0.997l-1.997,0c-0.551,0 -0.998,0.447 -0.998,0.997l-0,1.999c-0,0.551 0.447,0.997 0.998,0.997l1.997,0c0.551,0 0.999,-0.446 0.999,-0.997l-0,-1.999Zm19.969,-0.004c-0,-0.55 -0.447,-0.997 -0.999,-0.997l-1.996,-0c-0.552,-0 -0.999,0.447 -0.999,0.997l0,1.999c0,0.55 0.447,0.997 0.999,0.997l1.996,-0c0.552,-0 0.999,-0.447 0.999,-0.997l-0,-1.999Zm-14.977,-0c-0,-0.55 -0.448,-0.997 -0.999,-0.997l-1.997,-0c-0.551,-0 -0.998,0.447 -0.998,0.997l0,1.999c0,0.55 0.447,0.997 0.998,0.997l1.997,-0c0.551,-0 0.999,-0.447 0.999,-0.997l-0,-1.999Zm19.969,-0c0,-0.55 -0.447,-0.997 -0.998,-0.997l-1.997,-0c-0.551,-0 -0.999,0.447 -0.999,0.997l0,1.999c0,0.55 0.448,0.997 0.999,0.997l1.997,-0c0.551,-0 0.998,-0.447 0.998,-0.997l0,-1.999Zm-29.954,-0c0,-0.55 -0.447,-0.997 -0.998,-0.997l-1.997,-0c-0.551,-0 -0.999,0.447 -0.999,0.997l0,1.999c0,0.55 0.448,0.997 0.999,0.997l1.997,-0c0.551,-0 0.998,-0.447 0.998,-0.997l0,-1.999Zm54.916,-0c0,-0.55 -0.447,-0.997 -0.998,-0.997l-1.997,-0c-0.551,-0 -0.999,0.447 -0.999,0.997l0,1.999c0,0.55 0.448,0.997 0.999,0.997l1.997,-0c0.551,-0 0.998,-0.447 0.998,-0.997l0,-1.999Zm-9.985,-0c0,-0.55 -0.447,-0.997 -0.998,-0.997l-1.997,-0c-0.551,-0 -0.999,0.447 -0.999,0.997l0,1.999c0,0.55 0.448,0.997 0.999,0.997l1.997,-0c0.551,-0 0.998,-0.447 0.998,-0.997l0,-1.999Zm4.993,-0.004c-0,-0.551 -0.448,-0.998 -0.999,-0.998l-1.997,0c-0.551,0 -0.998,0.447 -0.998,0.998l-0,1.998c-0,0.551 0.447,0.997 0.998,0.997l1.997,0c0.551,0 0.999,-0.446 0.999,-0.997l-0,-1.998Zm-29.954,-0c-0,-0.551 -0.448,-0.998 -0.999,-0.998l-1.997,0c-0.551,0 -0.998,0.447 -0.998,0.998l-0,1.998c-0,0.551 0.447,0.997 0.998,0.997l1.997,0c0.551,0 0.999,-0.446 0.999,-0.997l-0,-1.998Zm19.969,-0c0,-0.551 -0.447,-0.998 -0.998,-0.998l-1.997,0c-0.551,0 -0.999,0.447 -0.999,0.998l0,1.998c0,0.551 0.448,0.997 0.999,0.997l1.997,0c0.551,0 0.998,-0.446 0.998,-0.997l0,-1.998Zm-44.931,-4.991c-0,-0.55 -0.448,-0.997 -0.999,-0.997l-1.997,0c-0.551,0 -0.998,0.447 -0.998,0.997l-0,1.999c-0,0.55 0.447,0.997 0.998,0.997l1.997,0c0.551,0 0.999,-0.447 0.999,-0.997l-0,-1.999Zm9.985,-0.004c-0,-0.55 -0.448,-0.997 -0.999,-0.997l-1.997,-0c-0.551,-0 -0.998,0.447 -0.998,0.997l-0,1.999c-0,0.55 0.447,0.997 0.998,0.997l1.997,-0c0.551,-0 0.999,-0.447 0.999,-0.997l-0,-1.999Zm9.984,-0c0,-0.55 -0.447,-0.997 -0.998,-0.997l-1.997,-0c-0.551,-0 -0.999,0.447 -0.999,0.997l0,1.999c0,0.55 0.448,0.997 0.999,0.997l1.997,-0c0.551,-0 0.998,-0.447 0.998,-0.997l0,-1.999Zm19.97,-0c-0,-0.55 -0.448,-0.997 -0.999,-0.997l-1.997,-0c-0.551,-0 -0.998,0.447 -0.998,0.997l-0,1.999c-0,0.55 0.447,0.997 0.998,0.997l1.997,-0c0.551,-0 0.999,-0.447 0.999,-0.997l-0,-1.999Zm-9.985,-0.005c-0,-0.55 -0.447,-0.997 -0.999,-0.997l-1.996,0c-0.552,0 -0.999,0.447 -0.999,0.997l0,1.999c0,0.551 0.447,0.997 0.999,0.997l1.996,0c0.552,0 0.999,-0.446 0.999,-0.997l-0,-1.999Zm-14.977,0c-0,-0.55 -0.448,-0.997 -0.999,-0.997l-1.997,0c-0.551,0 -0.998,0.447 -0.998,0.997l0,1.999c0,0.551 0.447,0.997 0.998,0.997l1.997,0c0.551,0 0.999,-0.446 0.999,-0.997l-0,-1.999Zm-9.985,0c0,-0.55 -0.447,-0.997 -0.998,-0.997l-1.997,0c-0.551,0 -0.999,0.447 -0.999,0.997l0,1.999c0,0.551 0.448,0.997 0.999,0.997l1.997,0c0.551,0 0.998,-0.446 0.998,-0.997l0,-1.999Zm29.954,0c0,-0.55 -0.447,-0.997 -0.998,-0.997l-1.997,0c-0.551,0 -0.999,0.447 -0.999,0.997l0,1.999c0,0.551 0.448,0.997 0.999,0.997l1.997,0c0.551,0 0.998,-0.446 0.998,-0.997l0,-1.999Zm14.977,0c0,-0.55 -0.447,-0.997 -0.998,-0.997l-1.997,0c-0.551,0 -0.999,0.447 -0.999,0.997l0,1.999c0,0.551 0.448,0.997 0.999,0.997l1.997,0c0.551,0 0.998,-0.446 0.998,-0.997l0,-1.999Zm9.985,0c0,-0.55 -0.447,-0.997 -0.998,-0.997l-1.997,0c-0.551,0 -0.999,0.447 -0.999,0.997l0,1.999c0,0.551 0.448,0.997 0.999,0.997l1.997,0c0.551,0 0.998,-0.446 0.998,-0.997l0,-1.999Zm-34.946,-0.004c-0,-0.55 -0.448,-0.997 -0.999,-0.997l-1.997,-0c-0.551,-0 -0.998,0.447 -0.998,0.997l-0,1.999c-0,0.55 0.447,0.997 0.998,0.997l1.997,-0c0.551,-0 0.999,-0.447 0.999,-0.997l-0,-1.999Zm19.969,-0c0,-0.55 -0.447,-0.997 -0.998,-0.997l-1.997,-0c-0.551,-0 -0.999,0.447 -0.999,0.997l0,1.999c0,0.55 0.448,0.997 0.999,0.997l1.997,-0c0.551,-0 0.998,-0.447 0.998,-0.997l0,-1.999Zm9.985,-0c-0,-0.55 -0.448,-0.997 -0.999,-0.997l-1.997,-0c-0.551,-0 -0.998,0.447 -0.998,0.997l-0,1.999c-0,0.55 0.447,0.997 0.998,0.997l1.997,-0c0.551,-0 0.999,-0.447 0.999,-0.997l-0,-1.999Zm-54.916,-4.968c-0,-0.55 -0.448,-0.997 -0.999,-0.997l-1.997,-0c-0.551,-0 -0.998,0.447 -0.998,0.997l-0,1.999c-0,0.55 0.447,0.997 0.998,0.997l1.997,-0c0.551,-0 0.999,-0.447 0.999,-0.997l-0,-1.999Zm39.939,-0.004c-0,-0.551 -0.448,-0.998 -0.999,-0.998l-1.997,0c-0.551,0 -0.998,0.447 -0.998,0.998l-0,1.998c-0,0.551 0.447,0.998 0.998,0.998l1.997,-0c0.551,-0 0.999,-0.447 0.999,-0.998l-0,-1.998Zm-19.97,-0c0,-0.551 -0.447,-0.998 -0.998,-0.998l-1.997,0c-0.551,0 -0.999,0.447 -0.999,0.998l0,1.998c0,0.551 0.448,0.998 0.999,0.998l1.997,-0c0.551,-0 0.998,-0.447 0.998,-0.998l0,-1.998Zm-9.984,-0c-0,-0.551 -0.448,-0.998 -0.999,-0.998l-1.997,0c-0.551,0 -0.998,0.447 -0.998,0.998l-0,1.998c-0,0.551 0.447,0.998 0.998,0.998l1.997,-0c0.551,-0 0.999,-0.447 0.999,-0.998l-0,-1.998Zm4.992,-0.005c-0,-0.55 -0.448,-0.997 -0.999,-0.997l-1.997,0c-0.551,0 -0.998,0.447 -0.998,0.997l0,1.999c0,0.55 0.447,0.997 0.998,0.997l1.997,0c0.551,0 0.999,-0.447 0.999,-0.997l-0,-1.999Zm14.977,0c-0,-0.55 -0.447,-0.997 -0.999,-0.997l-1.996,0c-0.552,0 -0.999,0.447 -0.999,0.997l0,1.999c0,0.55 0.447,0.997 0.999,0.997l1.996,0c0.552,0 0.999,-0.447 0.999,-0.997l-0,-1.999Zm29.954,0c0,-0.55 -0.447,-0.997 -0.998,-0.997l-1.997,0c-0.551,0 -0.999,0.447 -0.999,0.997l0,1.999c0,0.55 0.448,0.997 0.999,0.997l1.997,0c0.551,0 0.998,-0.447 0.998,-0.997l0,-1.999Zm-9.985,0c0,-0.55 -0.447,-0.997 -0.998,-0.997l-1.997,0c-0.551,0 -0.999,0.447 -0.999,0.997l0,1.999c0,0.55 0.448,0.997 0.999,0.997l1.997,0c0.551,0 0.998,-0.447 0.998,-0.997l0,-1.999Zm-14.977,0c0,-0.55 -0.447,-0.997 -0.998,-0.997l-1.997,0c-0.551,0 -0.999,0.447 -0.999,0.997l0,1.999c0,0.55 0.448,0.997 0.999,0.997l1.997,0c0.551,0 0.998,-0.447 0.998,-0.997l0,-1.999Zm-29.954,0c0,-0.55 -0.447,-0.997 -0.998,-0.997l-1.997,0c-0.551,0 -0.999,0.447 -0.999,0.997l0,1.999c0,0.55 0.448,0.997 0.999,0.997l1.997,0c0.551,0 0.998,-0.447 0.998,-0.997l0,-1.999Zm49.924,-0.004c-0,-0.551 -0.448,-0.997 -0.999,-0.997l-1.997,-0c-0.551,-0 -0.998,0.446 -0.998,0.997l-0,1.998c-0,0.551 0.447,0.998 0.998,0.998l1.997,-0c0.551,-0 0.999,-0.447 0.999,-0.998l-0,-1.998Zm-9.985,-0c0,-0.551 -0.447,-0.997 -0.998,-0.997l-1.997,-0c-0.551,-0 -0.999,0.446 -0.999,0.997l0,1.998c0,0.551 0.448,0.998 0.999,0.998l1.997,-0c0.551,-0 0.998,-0.447 0.998,-0.998l0,-1.998Zm-19.969,-0c-0,-0.551 -0.448,-0.997 -0.999,-0.997l-1.997,-0c-0.551,-0 -0.998,0.446 -0.998,0.997l-0,1.998c-0,0.551 0.447,0.998 0.998,0.998l1.997,-0c0.551,-0 0.999,-0.447 0.999,-0.998l-0,-1.998Zm-24.962,-4.95c-0,-0.551 -0.448,-0.997 -0.999,-0.997l-1.997,-0c-0.551,-0 -0.998,0.446 -0.998,0.997l-0,1.998c-0,0.551 0.447,0.998 0.998,0.998l1.997,-0c0.551,-0 0.999,-0.447 0.999,-0.998l-0,-1.998Zm39.939,-0.005c-0,-0.55 -0.448,-0.997 -0.999,-0.997l-1.997,0c-0.551,0 -0.998,0.447 -0.998,0.997l-0,1.999c-0,0.55 0.447,0.997 0.998,0.997l1.997,0c0.551,0 0.999,-0.447 0.999,-0.997l-0,-1.999Zm-29.954,0c-0,-0.55 -0.448,-0.997 -0.999,-0.997l-1.997,0c-0.551,0 -0.998,0.447 -0.998,0.997l-0,1.999c-0,0.55 0.447,0.997 0.998,0.997l1.997,0c0.551,0 0.999,-0.447 0.999,-0.997l-0,-1.999Zm9.984,0c0,-0.55 -0.447,-0.997 -0.998,-0.997l-1.997,0c-0.551,0 -0.999,0.447 -0.999,0.997l0,1.999c0,0.55 0.448,0.997 0.999,0.997l1.997,0c0.551,0 0.998,-0.447 0.998,-0.997l0,-1.999Zm9.985,-0.004c-0,-0.551 -0.447,-0.997 -0.999,-0.997l-1.996,-0c-0.552,-0 -0.999,0.446 -0.999,0.997l0,1.998c0,0.551 0.447,0.998 0.999,0.998l1.996,-0c0.552,-0 0.999,-0.447 0.999,-0.998l-0,-1.998Zm-14.977,-0c-0,-0.551 -0.448,-0.997 -0.999,-0.997l-1.997,-0c-0.551,-0 -0.998,0.446 -0.998,0.997l0,1.998c0,0.551 0.447,0.998 0.998,0.998l1.997,-0c0.551,-0 0.999,-0.447 0.999,-0.998l-0,-1.998Zm-9.985,-0c0,-0.551 -0.447,-0.997 -0.998,-0.997l-1.997,-0c-0.551,-0 -0.999,0.446 -0.999,0.997l0,1.998c0,0.551 0.448,0.998 0.999,0.998l1.997,-0c0.551,-0 0.998,-0.447 0.998,-0.998l0,-1.998Zm54.916,-0c0,-0.551 -0.447,-0.997 -0.998,-0.997l-1.997,-0c-0.551,-0 -0.999,0.446 -0.999,0.997l0,1.998c0,0.551 0.448,0.998 0.999,0.998l1.997,-0c0.551,-0 0.998,-0.447 0.998,-0.998l0,-1.998Zm-9.985,-0c0,-0.551 -0.447,-0.997 -0.998,-0.997l-1.997,-0c-0.551,-0 -0.999,0.446 -0.999,0.997l0,1.998c0,0.551 0.448,0.998 0.999,0.998l1.997,-0c0.551,-0 0.998,-0.447 0.998,-0.998l0,-1.998Zm-14.977,-0c0,-0.551 -0.447,-0.997 -0.998,-0.997l-1.997,-0c-0.551,-0 -0.999,0.446 -0.999,0.997l0,1.998c0,0.551 0.448,0.998 0.999,0.998l1.997,-0c0.551,-0 0.998,-0.447 0.998,-0.998l0,-1.998Zm19.97,-0.005c-0,-0.55 -0.448,-0.997 -0.999,-0.997l-1.997,0c-0.551,0 -0.998,0.447 -0.998,0.997l-0,1.999c-0,0.55 0.447,0.997 0.998,0.997l1.997,0c0.551,0 0.999,-0.447 0.999,-0.997l-0,-1.999Zm-9.985,0c0,-0.55 -0.447,-0.997 -0.998,-0.997l-1.997,0c-0.551,0 -0.999,0.447 -0.999,0.997l0,1.999c0,0.55 0.448,0.997 0.999,0.997l1.997,0c0.551,0 0.998,-0.447 0.998,-0.997l0,-1.999Zm-19.969,0c-0,-0.55 -0.448,-0.997 -0.999,-0.997l-1.997,0c-0.551,0 -0.998,0.447 -0.998,0.997l-0,1.999c-0,0.55 0.447,0.997 0.998,0.997l1.997,0c0.551,0 0.999,-0.447 0.999,-0.997l-0,-1.999Zm-24.962,-4.968c-0,-0.55 -0.448,-0.997 -0.999,-0.997l-1.997,0c-0.551,0 -0.998,0.447 -0.998,0.997l-0,1.999c-0,0.55 0.447,0.997 0.998,0.997l1.997,0c0.551,0 0.999,-0.447 0.999,-0.997l-0,-1.999Zm39.939,-0.004c-0,-0.55 -0.448,-0.997 -0.999,-0.997l-1.997,-0c-0.551,-0 -0.998,0.447 -0.998,0.997l-0,1.999c-0,0.55 0.447,0.997 0.998,0.997l1.997,-0c0.551,-0 0.999,-0.447 0.999,-0.997l-0,-1.999Zm-19.97,-0c0,-0.55 -0.447,-0.997 -0.998,-0.997l-1.997,-0c-0.551,-0 -0.999,0.447 -0.999,0.997l0,1.999c0,0.55 0.448,0.997 0.999,0.997l1.997,-0c0.551,-0 0.998,-0.447 0.998,-0.997l0,-1.999Zm-9.984,-0c-0,-0.55 -0.448,-0.997 -0.999,-0.997l-1.997,-0c-0.551,-0 -0.998,0.447 -0.998,0.997l-0,1.999c-0,0.55 0.447,0.997 0.998,0.997l1.997,-0c0.551,-0 0.999,-0.447 0.999,-0.997l-0,-1.999Zm4.992,-0.005c-0,-0.55 -0.448,-0.997 -0.999,-0.997l-1.997,0c-0.551,0 -0.998,0.447 -0.998,0.997l0,1.999c0,0.551 0.447,0.997 0.998,0.997l1.997,0c0.551,0 0.999,-0.446 0.999,-0.997l-0,-1.999Zm14.977,0c-0,-0.55 -0.447,-0.997 -0.999,-0.997l-1.996,0c-0.552,0 -0.999,0.447 -0.999,0.997l0,1.999c0,0.551 0.447,0.997 0.999,0.997l1.996,0c0.552,0 0.999,-0.446 0.999,-0.997l-0,-1.999Zm-24.962,0c0,-0.55 -0.447,-0.997 -0.998,-0.997l-1.997,0c-0.551,0 -0.999,0.447 -0.999,0.997l0,1.999c0,0.551 0.448,0.997 0.999,0.997l1.997,0c0.551,0 0.998,-0.446 0.998,-0.997l0,-1.999Zm54.916,0c0,-0.55 -0.447,-0.997 -0.998,-0.997l-1.997,0c-0.551,0 -0.999,0.447 -0.999,0.997l0,1.999c0,0.551 0.448,0.997 0.999,0.997l1.997,0c0.551,0 0.998,-0.446 0.998,-0.997l0,-1.999Zm-9.985,0c0,-0.55 -0.447,-0.997 -0.998,-0.997l-1.997,0c-0.551,0 -0.999,0.447 -0.999,0.997l0,1.999c0,0.551 0.448,0.997 0.999,0.997l1.997,0c0.551,0 0.998,-0.446 0.998,-0.997l0,-1.999Zm-14.977,0c0,-0.55 -0.447,-0.997 -0.998,-0.997l-1.997,0c-0.551,0 -0.999,0.447 -0.999,0.997l0,1.999c0,0.551 0.448,0.997 0.999,0.997l1.997,0c0.551,0 0.998,-0.446 0.998,-0.997l0,-1.999Zm9.985,-0.004c0,-0.55 -0.447,-0.997 -0.998,-0.997l-1.997,-0c-0.551,-0 -0.999,0.447 -0.999,0.997l0,1.999c0,0.55 0.448,0.997 0.999,0.997l1.997,-0c0.551,-0 0.998,-0.447 0.998,-0.997l0,-1.999Zm-19.969,0c-0,-0.55 -0.448,-0.997 -0.999,-0.997l-1.997,-0c-0.551,-0 -0.998,0.447 -0.998,0.997l-0,1.999c-0,0.55 0.447,0.997 0.998,0.997l1.997,-0c0.551,-0 0.999,-0.447 0.999,-0.997l-0,-1.999Zm29.954,0c-0,-0.55 -0.448,-0.997 -0.999,-0.997l-1.997,-0c-0.551,-0 -0.998,0.447 -0.998,0.997l-0,1.999c-0,0.55 0.447,0.997 0.998,0.997l1.997,-0c0.551,-0 0.999,-0.447 0.999,-0.997l-0,-1.999Zm-54.916,-4.99c-0,-0.55 -0.448,-0.997 -0.999,-0.997l-1.997,-0c-0.551,-0 -0.998,0.447 -0.998,0.997l-0,1.999c-0,0.55 0.447,0.997 0.998,0.997l1.997,-0c0.551,-0 0.999,-0.447 0.999,-0.997l-0,-1.999Zm39.939,-0.005c-0,-0.55 -0.448,-0.997 -0.999,-0.997l-1.997,0c-0.551,0 -0.998,0.447 -0.998,0.997l-0,1.999c-0,0.55 0.447,0.997 0.998,0.997l1.997,0c0.551,0 0.999,-0.447 0.999,-0.997l-0,-1.999Zm-19.97,0c0,-0.55 -0.447,-0.997 -0.998,-0.997l-1.997,0c-0.551,0 -0.999,0.447 -0.999,0.997l0,1.999c0,0.55 0.448,0.997 0.999,0.997l1.997,0c0.551,0 0.998,-0.447 0.998,-0.997l0,-1.999Zm-9.984,0c-0,-0.55 -0.448,-0.997 -0.999,-0.997l-1.997,0c-0.551,0 -0.998,0.447 -0.998,0.997l-0,1.999c-0,0.55 0.447,0.997 0.998,0.997l1.997,0c0.551,0 0.999,-0.447 0.999,-0.997l-0,-1.999Zm4.992,-0.004c-0,-0.55 -0.448,-0.997 -0.999,-0.997l-1.997,-0c-0.551,-0 -0.998,0.447 -0.998,0.997l0,1.999c0,0.55 0.447,0.997 0.998,0.997l1.997,-0c0.551,-0 0.999,-0.447 0.999,-0.997l-0,-1.999Zm14.977,-0c-0,-0.55 -0.447,-0.997 -0.999,-0.997l-1.996,-0c-0.552,-0 -0.999,0.447 -0.999,0.997l0,1.999c0,0.55 0.447,0.997 0.999,0.997l1.996,-0c0.552,-0 0.999,-0.447 0.999,-0.997l-0,-1.999Zm-24.962,-0c0,-0.55 -0.447,-0.997 -0.998,-0.997l-1.997,-0c-0.551,-0 -0.999,0.447 -0.999,0.997l0,1.999c0,0.55 0.448,0.997 0.999,0.997l1.997,-0c0.551,-0 0.998,-0.447 0.998,-0.997l0,-1.999Zm44.931,-0c0,-0.55 -0.447,-0.997 -0.998,-0.997l-1.997,-0c-0.551,-0 -0.999,0.447 -0.999,0.997l0,1.999c0,0.55 0.448,0.997 0.999,0.997l1.997,-0c0.551,-0 0.998,-0.447 0.998,-0.997l0,-1.999Zm-14.977,-0c0,-0.55 -0.447,-0.997 -0.998,-0.997l-1.997,-0c-0.551,-0 -0.999,0.447 -0.999,0.997l0,1.999c0,0.55 0.448,0.997 0.999,0.997l1.997,-0c0.551,-0 0.998,-0.447 0.998,-0.997l0,-1.999Zm24.962,-0c0,-0.55 -0.447,-0.997 -0.998,-0.997l-1.997,-0c-0.551,-0 -0.999,0.447 -0.999,0.997l0,1.999c0,0.55 0.448,0.997 0.999,0.997l1.997,-0c0.551,-0 0.998,-0.447 0.998,-0.997l0,-1.999Zm-34.946,-0.005c-0,-0.55 -0.448,-0.997 -0.999,-0.997l-1.997,0c-0.551,0 -0.998,0.447 -0.998,0.997l-0,1.999c-0,0.551 0.447,0.997 0.998,0.997l1.997,0c0.551,0 0.999,-0.446 0.999,-0.997l-0,-1.999Zm19.969,0c0,-0.55 -0.447,-0.997 -0.998,-0.997l-1.997,0c-0.551,0 -0.999,0.447 -0.999,0.997l0,1.999c0,0.551 0.448,0.997 0.999,0.997l1.997,0c0.551,0 0.998,-0.446 0.998,-0.997l0,-1.999Zm9.985,0c-0,-0.55 -0.448,-0.997 -0.999,-0.997l-1.997,0c-0.551,0 -0.998,0.447 -0.998,0.997l-0,1.999c-0,0.551 0.447,0.997 0.998,0.997l1.997,0c0.551,0 0.999,-0.446 0.999,-0.997l-0,-1.999Z" style="fill:#252324;"/></g></svg>