<?xml version="1.0" encoding="UTF-8" standalone="no"?><!DOCTYPE svg PUBLIC "-//W3C//DTD SVG 1.1//EN" "http://www.w3.org/Graphics/SVG/1.1/DTD/svg11.dtd"><svg width="100%" height="100%" viewBox="0 0 1280 1280" version="1.1" xmlns="http://www.w3.org/2000/svg" xmlns:xlink="http://www.w3.org/1999/xlink" xml:space="preserve" xmlns:serif="http://www.serif.com/" style="fill-rule:evenodd;clip-rule:evenodd;stroke-linejoin:round;stroke-miterlimit:2;"><g><path d="M862.317,221.537c-12.892,13.665 -25.262,28.036 -37.109,43.109c-22.735,28.927 -41.809,58.934 -57.223,90.02c-36.222,72.533 -60.69,139.022 -73.407,199.467c-12.716,60.444 -15.606,112.685 -8.67,156.724c6.936,44.038 23.121,78.577 48.553,103.619c25.432,25.041 58.186,38.857 98.261,41.447c11.56,1.727 22.928,1.08 34.102,-1.942c11.175,-3.023 22.157,-7.124 32.947,-12.305c-25.433,46.628 -51.636,83.975 -78.609,112.038c-26.974,28.064 -55.103,42.095 -84.389,42.095c-16.955,0 -30.635,-6.044 -41.039,-18.133c-10.404,-12.089 -17.34,-26.121 -20.808,-42.095c-3.468,-15.975 -3.275,-32.381 0.578,-49.219c3.854,-16.838 11.175,-30.007 21.964,-39.505c6.936,-6.045 10.597,-14.032 10.983,-23.962c0.385,-9.93 -1.735,-19.213 -6.359,-27.848c-4.624,-8.635 -11.56,-14.463 -20.808,-17.486c-9.248,-3.022 -19.652,-0.647 -31.212,7.124c-11.56,7.772 -21.964,20.508 -31.213,38.21c-9.248,17.701 -16.184,37.346 -20.808,58.933c-4.624,21.588 -6.165,44.254 -4.624,68c1.542,23.746 7.707,45.118 18.496,64.115c10.79,18.997 26.589,34.755 47.397,47.276c20.808,12.521 48.167,18.781 82.077,18.781c33.91,-0 64.929,-9.067 93.059,-27.2c14.141,-9.116 27.551,-19.432 40.231,-30.947c-118.107,149.799 -192.492,222.967 -234.744,227.298c-23.938,2.4 -99.411,-24.736 -150.325,-79.136c-83.469,-89.459 -189.873,-228.071 -282.572,-380.149c1.447,-2.57 2.887,-5.16 4.319,-7.771c22.735,-41.448 44.699,-85.27 65.893,-131.467c21.193,-46.197 42.001,-93.689 62.424,-142.476c20.423,-48.788 41.039,-96.064 61.847,-141.829c-13.101,41.447 -24.276,90.667 -33.524,147.657c-9.249,56.991 -16.377,113.981 -21.387,170.972c-5.009,56.99 -8.092,109.448 -9.248,157.371c-1.156,47.924 -0.192,83.543 2.89,106.858c3.083,23.314 11.175,37.562 24.277,42.743c13.101,5.181 26.203,-4.318 39.304,-28.496c49.323,-90.666 94.986,-179.606 136.988,-266.819c42.001,-87.213 83.233,-166.223 123.693,-237.029c40.46,-70.806 81.692,-129.74 123.693,-176.8c23.442,-26.265 48.143,-46.679 74.102,-61.243Zm99.106,686.633c2.823,-5.041 5.585,-10.153 8.287,-15.332c17.34,-33.245 32.175,-64.978 44.506,-95.2c12.331,-30.223 22.157,-57.207 29.478,-80.953c7.322,-23.746 12.524,-39.505 15.607,-47.276c4.624,-12.089 4.431,-22.019 -0.578,-29.791c-5.01,-7.771 -11.946,-12.952 -20.809,-15.542c-8.862,-2.591 -18.111,-1.943 -27.744,1.942c-9.633,3.886 -16.762,11.442 -21.386,22.667c-4.624,6.908 -11.368,17.27 -20.23,31.086c-8.863,13.816 -19.075,27.848 -30.635,42.095c-11.56,14.248 -24.469,26.768 -38.726,37.562c-14.258,10.794 -29.093,16.622 -44.507,17.486c-26.973,1.727 -48.552,-6.692 -64.737,-25.257c-16.184,-18.565 -25.624,-45.118 -28.322,-79.658c-2.697,-34.539 1.541,-75.339 12.716,-122.4c11.175,-47.06 30.635,-98.222 58.379,-153.486c13.872,-28.495 34.68,-59.149 62.425,-91.962c27.744,-32.813 58.186,-61.524 91.325,-86.133c33.139,-24.61 67.048,-42.096 101.729,-52.457c34.68,-10.362 66.278,-6.477 94.793,11.657c13.101,8.635 19.845,22.451 20.23,41.447c0.386,18.997 -3.661,40.153 -12.138,63.467c-8.477,23.314 -20.808,47.492 -36.992,72.534c-16.185,25.041 -33.717,47.923 -52.599,68.647c-18.882,20.724 -38.341,37.994 -58.379,51.81c-20.037,13.816 -38.919,21.156 -56.644,22.019c-6.936,0.863 -11.56,4.965 -13.872,12.305c-2.312,7.339 -2.312,15.327 -0,23.962c2.312,8.635 6.743,16.622 13.294,23.962c6.55,7.339 15.221,11.009 26.01,11.009c23.12,-0.863 48.167,-9.714 75.141,-26.552c26.974,-16.838 52.791,-38.857 77.453,-66.057c24.661,-27.2 46.626,-57.423 65.893,-90.667c17.026,-29.378 29.839,-58.757 38.44,-88.139c1.135,16.535 0.675,36.6 -1.461,50.035c-1.051,6.9 -2.335,15.9 -2.686,20c-8.674,88.867 -134.323,311.633 -303.261,541.17Zm-800.979,-198.099c-16.01,-28.69 -31.335,-57.618 -45.75,-86.571c-55.117,-110.7 -90.617,-205.2 -99.959,-266c-3.62,-23.9 -5.488,-61.5 -3.736,-77.5c5.955,-53.3 31.645,-99 78.355,-139c48.928,-42 115.256,-74.7 200.851,-99c84.078,-23.9 174.577,-37.1 283.761,-41.4c20.669,-0.8 105.097,0.4 128.451,1.9c148.481,9.276 276.794,37.595 376.193,82.884c-2.578,0.561 -5.16,1.166 -7.749,1.815c-29.286,7.339 -58.572,19.644 -87.857,36.914c-7.805,4.602 -15.514,9.435 -23.126,14.497c-2.338,-10.375 -7.732,-19.309 -16.179,-26.802c-9.248,-8.203 -21.579,-10.578 -36.992,-7.124c-36.993,10.362 -71.673,28.28 -104.041,53.753c-32.369,25.473 -63.388,56.559 -93.059,93.257c-29.671,36.698 -57.801,77.067 -84.389,121.105c-26.589,44.038 -52.214,89.587 -76.875,136.648c-24.662,47.06 -48.36,94.336 -71.095,141.829c-22.735,47.492 -44.892,92.393 -66.471,134.705c0,-33.677 2.119,-70.807 6.358,-111.391c4.239,-40.584 9.248,-82.248 15.028,-124.991c5.78,-42.743 12.331,-84.622 19.653,-125.638c7.321,-41.016 14.642,-78.794 21.964,-113.334c7.321,-34.539 14.257,-64.33 20.808,-89.371c6.551,-25.041 11.753,-42.311 15.606,-51.81c6.166,-13.816 7.129,-25.473 2.89,-34.971c-4.238,-9.499 -10.789,-15.975 -19.652,-19.429c-8.863,-3.454 -18.689,-3.454 -29.478,0c-10.79,3.454 -20.038,10.794 -27.745,22.019c-30.056,44.902 -58.378,95.416 -84.967,151.543c-26.588,56.127 -52.406,112.902 -77.452,170.324c-25.047,57.423 -49.709,113.55 -73.985,168.382c-13.01,29.384 -26.13,56.97 -39.361,82.757Z" style="fill-rule:nonzero;"/></g></svg>