<?xml version="1.0" encoding="UTF-8" standalone="no"?>
<!DOCTYPE svg PUBLIC "-//W3C//DTD SVG 1.1//EN"
 "http://www.w3.org/Graphics/SVG/1.1/DTD/svg11.dtd">
<!-- Generated by graphviz version 5.0.0 (20220707.1540)
 -->
<!-- Title: dependencies Pages: 1 -->
<svg width="1188pt" height="247pt"
 viewBox="0.00 0.00 1188.00 246.80" xmlns="http://www.w3.org/2000/svg" xmlns:xlink="http://www.w3.org/1999/xlink">
<g id="graph0" class="graph" transform="scale(1 1) rotate(0) translate(4 242.8)">
<title>dependencies</title>
<polygon fill="white" stroke="transparent" points="-4,4 -4,-242.8 1184,-242.8 1184,4 -4,4"/>
<text text-anchor="middle" x="590" y="-8.2" font-family="sans-serif" font-size="14.00">dependencies</text>
<g id="clust1" class="cluster">
<title>cluster_EtudeModule</title>
<polygon fill="none" stroke="black" stroke-dasharray="1,5" points="8,-32.8 8,-230.8 350,-230.8 350,-32.8 8,-32.8"/>
</g>
<g id="clust2" class="cluster">
<title>cluster_EtudeModule_declarations</title>
<polygon fill="none" stroke="black" points="212,-40.8 212,-92.8 342,-92.8 342,-40.8 212,-40.8"/>
</g>
<g id="clust5" class="cluster">
<title>cluster_EtudeModule_exports</title>
<polygon fill="none" stroke="black" points="125,-170.8 125,-222.8 259,-222.8 259,-170.8 125,-170.8"/>
</g>
<g id="clust7" class="cluster">
<title>cluster_EtudeModule_providers</title>
<polygon fill="none" stroke="black" points="16,-40.8 16,-92.8 204,-92.8 204,-40.8 16,-40.8"/>
</g>
<g id="clust8" class="cluster">
<title>cluster_FretboardModule</title>
<polygon fill="none" stroke="black" stroke-dasharray="1,5" points="358,-32.8 358,-230.8 530,-230.8 530,-32.8 358,-32.8"/>
</g>
<g id="clust9" class="cluster">
<title>cluster_FretboardModule_declarations</title>
<polygon fill="none" stroke="black" points="368,-40.8 368,-92.8 520,-92.8 520,-40.8 368,-40.8"/>
</g>
<g id="clust12" class="cluster">
<title>cluster_FretboardModule_exports</title>
<polygon fill="none" stroke="black" points="366,-170.8 366,-222.8 522,-222.8 522,-170.8 366,-170.8"/>
</g>
<g id="clust27" class="cluster">
<title>cluster_TabScrollerModule</title>
<polygon fill="none" stroke="black" stroke-dasharray="1,5" points="538,-32.8 538,-230.8 976,-230.8 976,-32.8 538,-32.8"/>
</g>
<g id="clust28" class="cluster">
<title>cluster_TabScrollerModule_declarations</title>
<polygon fill="none" stroke="black" points="550,-40.8 550,-92.8 962,-92.8 962,-40.8 550,-40.8"/>
</g>
<g id="clust33" class="cluster">
<title>cluster_TabScrollerModule_exports</title>
<polygon fill="none" stroke="black" points="546,-170.8 546,-222.8 968,-222.8 968,-170.8 546,-170.8"/>
</g>
<g id="clust36" class="cluster">
<title>cluster_TheoryModule</title>
<polygon fill="none" stroke="black" stroke-dasharray="1,5" points="984,-32.8 984,-157.8 1172,-157.8 1172,-32.8 984,-32.8"/>
</g>
<g id="clust41" class="cluster">
<title>cluster_TheoryModule_providers</title>
<polygon fill="none" stroke="black" points="992,-40.8 992,-92.8 1164,-92.8 1164,-40.8 992,-40.8"/>
</g>
<!-- EtudeComponent -->
<g id="node1" class="node">
<title>EtudeComponent</title>
<polygon fill="#ffffb3" stroke="black" points="333.99,-84.8 220.01,-84.8 220.01,-48.8 333.99,-48.8 333.99,-84.8"/>
<text text-anchor="middle" x="277" y="-62.6" font-family="Times,serif" font-size="14.00">EtudeComponent</text>
</g>
<!-- EtudeModule -->
<g id="node2" class="node">
<title>EtudeModule</title>
<polygon fill="#8dd3c7" stroke="black" points="238.21,-149.8 235.21,-153.8 214.21,-153.8 211.21,-149.8 145.79,-149.8 145.79,-113.8 238.21,-113.8 238.21,-149.8"/>
<text text-anchor="middle" x="192" y="-127.6" font-family="Times,serif" font-size="14.00">EtudeModule</text>
</g>
<!-- EtudeComponent&#45;&gt;EtudeModule -->
<g id="edge1" class="edge">
<title>EtudeComponent&#45;&gt;EtudeModule</title>
<path fill="none" stroke="black" d="M229.06,-84.91C229.06,-84.91 229.06,-103.79 229.06,-103.79"/>
<polygon fill="black" stroke="black" points="225.56,-103.79 229.06,-113.79 232.56,-103.79 225.56,-103.79"/>
</g>
<!-- EtudeComponent  -->
<g id="node3" class="node">
<title>EtudeComponent </title>
<polygon fill="#fb8072" stroke="black" points="250.99,-214.8 133.01,-214.8 133.01,-178.8 250.99,-178.8 250.99,-214.8"/>
<text text-anchor="middle" x="192" y="-192.6" font-family="Times,serif" font-size="14.00">EtudeComponent </text>
</g>
<!-- EtudeModule&#45;&gt;EtudeComponent  -->
<g id="edge2" class="edge">
<title>EtudeModule&#45;&gt;EtudeComponent </title>
<path fill="none" stroke="black" stroke-dasharray="5,2" d="M192,-149.91C192,-149.91 192,-168.79 192,-168.79"/>
<polygon fill="black" stroke="black" points="188.5,-168.79 192,-178.79 195.5,-168.79 188.5,-168.79"/>
</g>
<!-- ProgressionService -->
<g id="node4" class="node">
<title>ProgressionService</title>
<ellipse fill="#fdb462" stroke="black" cx="110" cy="-66.8" rx="85.69" ry="18"/>
<text text-anchor="middle" x="110" y="-62.6" font-family="Times,serif" font-size="14.00">ProgressionService</text>
</g>
<!-- ProgressionService&#45;&gt;EtudeModule -->
<g id="edge3" class="edge">
<title>ProgressionService&#45;&gt;EtudeModule</title>
<path fill="none" stroke="black" d="M170.75,-79.64C170.75,-79.64 170.75,-103.32 170.75,-103.32"/>
<polygon fill="black" stroke="black" points="167.25,-103.32 170.75,-113.32 174.25,-103.32 167.25,-103.32"/>
</g>
<!-- FretboardComponent -->
<g id="node5" class="node">
<title>FretboardComponent</title>
<polygon fill="#ffffb3" stroke="black" points="511.76,-84.8 376.24,-84.8 376.24,-48.8 511.76,-48.8 511.76,-84.8"/>
<text text-anchor="middle" x="444" y="-62.6" font-family="Times,serif" font-size="14.00">FretboardComponent</text>
</g>
<!-- FretboardModule -->
<g id="node6" class="node">
<title>FretboardModule</title>
<polygon fill="#8dd3c7" stroke="black" points="500.98,-149.8 497.98,-153.8 476.98,-153.8 473.98,-149.8 387.02,-149.8 387.02,-113.8 500.98,-113.8 500.98,-149.8"/>
<text text-anchor="middle" x="444" y="-127.6" font-family="Times,serif" font-size="14.00">FretboardModule</text>
</g>
<!-- FretboardComponent&#45;&gt;FretboardModule -->
<g id="edge4" class="edge">
<title>FretboardComponent&#45;&gt;FretboardModule</title>
<path fill="none" stroke="black" d="M444,-84.91C444,-84.91 444,-103.79 444,-103.79"/>
<polygon fill="black" stroke="black" points="440.5,-103.79 444,-113.79 447.5,-103.79 440.5,-103.79"/>
</g>
<!-- FretboardComponent  -->
<g id="node7" class="node">
<title>FretboardComponent </title>
<polygon fill="#fb8072" stroke="black" points="513.76,-214.8 374.24,-214.8 374.24,-178.8 513.76,-178.8 513.76,-214.8"/>
<text text-anchor="middle" x="444" y="-192.6" font-family="Times,serif" font-size="14.00">FretboardComponent </text>
</g>
<!-- FretboardModule&#45;&gt;FretboardComponent  -->
<g id="edge5" class="edge">
<title>FretboardModule&#45;&gt;FretboardComponent </title>
<path fill="none" stroke="black" stroke-dasharray="5,2" d="M444,-149.91C444,-149.91 444,-168.79 444,-168.79"/>
<polygon fill="black" stroke="black" points="440.5,-168.79 444,-178.79 447.5,-168.79 440.5,-168.79"/>
</g>
<!-- FretComponent -->
<g id="node8" class="node">
<title>FretComponent</title>
<polygon fill="#ffffb3" stroke="black" points="953.88,-84.8 850.12,-84.8 850.12,-48.8 953.88,-48.8 953.88,-84.8"/>
<text text-anchor="middle" x="902" y="-62.6" font-family="Times,serif" font-size="14.00">FretComponent</text>
</g>
<!-- TabScrollerModule -->
<g id="node11" class="node">
<title>TabScrollerModule</title>
<polygon fill="#8dd3c7" stroke="black" points="840.64,-149.8 837.64,-153.8 816.64,-153.8 813.64,-149.8 715.36,-149.8 715.36,-113.8 840.64,-113.8 840.64,-149.8"/>
<text text-anchor="middle" x="778" y="-127.6" font-family="Times,serif" font-size="14.00">TabScrollerModule</text>
</g>
<!-- FretComponent&#45;&gt;TabScrollerModule -->
<g id="edge6" class="edge">
<title>FretComponent&#45;&gt;TabScrollerModule</title>
<path fill="none" stroke="black" d="M850.11,-66.8C842.16,-66.8 836.54,-66.8 836.54,-66.8 836.54,-66.8 836.54,-103.69 836.54,-103.69"/>
<polygon fill="black" stroke="black" points="833.05,-103.69 836.54,-113.69 840.05,-103.69 833.05,-103.69"/>
</g>
<!-- NoteComponent -->
<g id="node9" class="node">
<title>NoteComponent</title>
<polygon fill="#ffffb3" stroke="black" points="832.05,-84.8 723.95,-84.8 723.95,-48.8 832.05,-48.8 832.05,-84.8"/>
<text text-anchor="middle" x="778" y="-62.6" font-family="Times,serif" font-size="14.00">NoteComponent</text>
</g>
<!-- NoteComponent&#45;&gt;TabScrollerModule -->
<g id="edge7" class="edge">
<title>NoteComponent&#45;&gt;TabScrollerModule</title>
<path fill="none" stroke="black" d="M778,-84.91C778,-84.91 778,-103.79 778,-103.79"/>
<polygon fill="black" stroke="black" points="774.5,-103.79 778,-113.79 781.5,-103.79 774.5,-103.79"/>
</g>
<!-- TabScrollerComponent -->
<g id="node10" class="node">
<title>TabScrollerComponent</title>
<polygon fill="#ffffb3" stroke="black" points="705.91,-84.8 558.09,-84.8 558.09,-48.8 705.91,-48.8 705.91,-84.8"/>
<text text-anchor="middle" x="632" y="-62.6" font-family="Times,serif" font-size="14.00">TabScrollerComponent</text>
</g>
<!-- TabScrollerComponent&#45;&gt;TabScrollerModule -->
<g id="edge8" class="edge">
<title>TabScrollerComponent&#45;&gt;TabScrollerModule</title>
<path fill="none" stroke="black" d="M705.79,-66.8C713.99,-66.8 719.46,-66.8 719.46,-66.8 719.46,-66.8 719.46,-103.69 719.46,-103.69"/>
<polygon fill="black" stroke="black" points="715.96,-103.69 719.46,-113.69 722.96,-103.69 715.96,-103.69"/>
</g>
<!-- FretComponent  -->
<g id="node12" class="node">
<title>FretComponent </title>
<polygon fill="#fb8072" stroke="black" points="959.88,-214.8 852.12,-214.8 852.12,-178.8 959.88,-178.8 959.88,-214.8"/>
<text text-anchor="middle" x="906" y="-192.6" font-family="Times,serif" font-size="14.00">FretComponent </text>
</g>
<!-- TabScrollerModule&#45;&gt;FretComponent  -->
<g id="edge9" class="edge">
<title>TabScrollerModule&#45;&gt;FretComponent </title>
<path fill="none" stroke="black" stroke-dasharray="5,2" d="M840.93,-131.8C872.09,-131.8 903.12,-131.8 903.12,-131.8 903.12,-131.8 903.12,-168.69 903.12,-168.69"/>
<polygon fill="black" stroke="black" points="899.63,-168.69 903.12,-178.69 906.63,-168.69 899.63,-168.69"/>
</g>
<!-- NoteComponent  -->
<g id="node13" class="node">
<title>NoteComponent </title>
<polygon fill="#fb8072" stroke="black" points="834.04,-214.8 721.96,-214.8 721.96,-178.8 834.04,-178.8 834.04,-214.8"/>
<text text-anchor="middle" x="778" y="-192.6" font-family="Times,serif" font-size="14.00">NoteComponent </text>
</g>
<!-- TabScrollerModule&#45;&gt;NoteComponent  -->
<g id="edge10" class="edge">
<title>TabScrollerModule&#45;&gt;NoteComponent </title>
<path fill="none" stroke="black" stroke-dasharray="5,2" d="M778,-149.91C778,-149.91 778,-168.79 778,-168.79"/>
<polygon fill="black" stroke="black" points="774.5,-168.79 778,-178.79 781.5,-168.79 774.5,-168.79"/>
</g>
<!-- TabScrollerComponent  -->
<g id="node14" class="node">
<title>TabScrollerComponent </title>
<polygon fill="#fb8072" stroke="black" points="704.41,-214.8 553.59,-214.8 553.59,-178.8 704.41,-178.8 704.41,-214.8"/>
<text text-anchor="middle" x="629" y="-192.6" font-family="Times,serif" font-size="14.00">TabScrollerComponent </text>
</g>
<!-- TabScrollerModule&#45;&gt;TabScrollerComponent  -->
<g id="edge11" class="edge">
<title>TabScrollerModule&#45;&gt;TabScrollerComponent </title>
<path fill="none" stroke="black" stroke-dasharray="5,2" d="M714.97,-131.8C675.23,-131.8 631.38,-131.8 631.38,-131.8 631.38,-131.8 631.38,-168.69 631.38,-168.69"/>
<polygon fill="black" stroke="black" points="627.88,-168.69 631.38,-178.69 634.88,-168.69 627.88,-168.69"/>
</g>
<!-- FretboardService -->
<g id="node15" class="node">
<title>FretboardService</title>
<ellipse fill="#fdb462" stroke="black" cx="1078" cy="-66.8" rx="77.57" ry="18"/>
<text text-anchor="middle" x="1078" y="-62.6" font-family="Times,serif" font-size="14.00">FretboardService</text>
</g>
<!-- TheoryModule -->
<g id="node16" class="node">
<title>TheoryModule</title>
<polygon fill="#8dd3c7" stroke="black" points="1127.98,-149.8 1124.98,-153.8 1103.98,-153.8 1100.98,-149.8 1028.02,-149.8 1028.02,-113.8 1127.98,-113.8 1127.98,-149.8"/>
<text text-anchor="middle" x="1078" y="-127.6" font-family="Times,serif" font-size="14.00">TheoryModule</text>
</g>
<!-- FretboardService&#45;&gt;TheoryModule -->
<g id="edge12" class="edge">
<title>FretboardService&#45;&gt;TheoryModule</title>
<path fill="none" stroke="black" d="M1078,-84.91C1078,-84.91 1078,-103.79 1078,-103.79"/>
<polygon fill="black" stroke="black" points="1074.5,-103.79 1078,-113.79 1081.5,-103.79 1074.5,-103.79"/>
</g>
</g>
</svg>
