<?xml version="1.0" encoding="UTF-8" standalone="no"?>
<!DOCTYPE svg PUBLIC "-//W3C//DTD SVG 1.1//EN"
 "http://www.w3.org/Graphics/SVG/1.1/DTD/svg11.dtd">
<!-- Generated by graphviz version 5.0.0 (20220707.1540)
 -->
<!-- Title: dependencies Pages: 1 -->
<svg width="366pt" height="247pt"
 viewBox="0.00 0.00 366.00 246.80" xmlns="http://www.w3.org/2000/svg" xmlns:xlink="http://www.w3.org/1999/xlink">
<g id="graph0" class="graph" transform="scale(1 1) rotate(0) translate(4 242.8)">
<title>dependencies</title>
<polygon fill="white" stroke="transparent" points="-4,4 -4,-242.8 362,-242.8 362,4 -4,4"/>
<text text-anchor="middle" x="179" y="-8.2" font-family="sans-serif" font-size="14.00">dependencies</text>
<g id="clust1" class="cluster">
<title>cluster_EtudeModule</title>
<polygon fill="none" stroke="black" stroke-dasharray="1,5" points="8,-32.8 8,-230.8 350,-230.8 350,-32.8 8,-32.8"/>
</g>
<g id="clust7" class="cluster">
<title>cluster_EtudeModule_providers</title>
<polygon fill="none" stroke="black" points="154,-40.8 154,-92.8 342,-92.8 342,-40.8 154,-40.8"/>
</g>
<g id="clust5" class="cluster">
<title>cluster_EtudeModule_exports</title>
<polygon fill="none" stroke="black" points="98,-170.8 98,-222.8 232,-222.8 232,-170.8 98,-170.8"/>
</g>
<g id="clust2" class="cluster">
<title>cluster_EtudeModule_declarations</title>
<polygon fill="none" stroke="black" points="16,-40.8 16,-92.8 146,-92.8 146,-40.8 16,-40.8"/>
</g>
<!-- EtudeComponent -->
<g id="node1" class="node">
<title>EtudeComponent</title>
<polygon fill="#ffffb3" stroke="black" points="137.99,-84.8 24.01,-84.8 24.01,-48.8 137.99,-48.8 137.99,-84.8"/>
<text text-anchor="middle" x="81" y="-62.6" font-family="Times,serif" font-size="14.00">EtudeComponent</text>
</g>
<!-- EtudeModule -->
<g id="node2" class="node">
<title>EtudeModule</title>
<polygon fill="#8dd3c7" stroke="black" points="211.21,-149.8 208.21,-153.8 187.21,-153.8 184.21,-149.8 118.79,-149.8 118.79,-113.8 211.21,-113.8 211.21,-149.8"/>
<text text-anchor="middle" x="165" y="-127.6" font-family="Times,serif" font-size="14.00">EtudeModule</text>
</g>
<!-- EtudeComponent&#45;&gt;EtudeModule -->
<g id="edge1" class="edge">
<title>EtudeComponent&#45;&gt;EtudeModule</title>
<path fill="none" stroke="black" d="M128.44,-84.91C128.44,-84.91 128.44,-103.79 128.44,-103.79"/>
<polygon fill="black" stroke="black" points="124.94,-103.79 128.44,-113.79 131.94,-103.79 124.94,-103.79"/>
</g>
<!-- EtudeComponent  -->
<g id="node3" class="node">
<title>EtudeComponent </title>
<polygon fill="#fb8072" stroke="black" points="223.99,-214.8 106.01,-214.8 106.01,-178.8 223.99,-178.8 223.99,-214.8"/>
<text text-anchor="middle" x="165" y="-192.6" font-family="Times,serif" font-size="14.00">EtudeComponent </text>
</g>
<!-- EtudeModule&#45;&gt;EtudeComponent  -->
<g id="edge2" class="edge">
<title>EtudeModule&#45;&gt;EtudeComponent </title>
<path fill="none" stroke="black" stroke-dasharray="5,2" d="M165,-149.91C165,-149.91 165,-168.79 165,-168.79"/>
<polygon fill="black" stroke="black" points="161.5,-168.79 165,-178.79 168.5,-168.79 161.5,-168.79"/>
</g>
<!-- ProgressionService -->
<g id="node4" class="node">
<title>ProgressionService</title>
<ellipse fill="#fdb462" stroke="black" cx="248" cy="-66.8" rx="85.69" ry="18"/>
<text text-anchor="middle" x="248" y="-62.6" font-family="Times,serif" font-size="14.00">ProgressionService</text>
</g>
<!-- ProgressionService&#45;&gt;EtudeModule -->
<g id="edge3" class="edge">
<title>ProgressionService&#45;&gt;EtudeModule</title>
<path fill="none" stroke="black" d="M186.75,-79.64C186.75,-79.64 186.75,-103.32 186.75,-103.32"/>
<polygon fill="black" stroke="black" points="183.25,-103.32 186.75,-113.32 190.25,-103.32 183.25,-103.32"/>
</g>
</g>
</svg>
