<?xml version="1.0" encoding="UTF-8" standalone="no"?>
<!DOCTYPE svg PUBLIC "-//W3C//DTD SVG 1.1//EN"
 "http://www.w3.org/Graphics/SVG/1.1/DTD/svg11.dtd">
<!-- Generated by graphviz version 5.0.0 (20220707.1540)
 -->
<!-- Title: dependencies Pages: 1 -->
<svg width="462pt" height="247pt"
 viewBox="0.00 0.00 462.00 246.80" xmlns="http://www.w3.org/2000/svg" xmlns:xlink="http://www.w3.org/1999/xlink">
<g id="graph0" class="graph" transform="scale(1 1) rotate(0) translate(4 242.8)">
<title>dependencies</title>
<polygon fill="white" stroke="transparent" points="-4,4 -4,-242.8 458,-242.8 458,4 -4,4"/>
<text text-anchor="middle" x="227" y="-8.2" font-family="sans-serif" font-size="14.00">dependencies</text>
<g id="clust1" class="cluster">
<title>cluster_TabScrollerModule</title>
<polygon fill="none" stroke="black" stroke-dasharray="1,5" points="8,-32.8 8,-230.8 446,-230.8 446,-32.8 8,-32.8"/>
</g>
<g id="clust7" class="cluster">
<title>cluster_TabScrollerModule_exports</title>
<polygon fill="none" stroke="black" points="16,-170.8 16,-222.8 438,-222.8 438,-170.8 16,-170.8"/>
</g>
<g id="clust2" class="cluster">
<title>cluster_TabScrollerModule_declarations</title>
<polygon fill="none" stroke="black" points="20,-40.8 20,-92.8 432,-92.8 432,-40.8 20,-40.8"/>
</g>
<!-- FretComponent -->
<g id="node1" class="node">
<title>FretComponent</title>
<polygon fill="#ffffb3" stroke="black" points="423.88,-84.8 320.12,-84.8 320.12,-48.8 423.88,-48.8 423.88,-84.8"/>
<text text-anchor="middle" x="372" y="-62.6" font-family="Times,serif" font-size="14.00">FretComponent</text>
</g>
<!-- TabScrollerModule -->
<g id="node4" class="node">
<title>TabScrollerModule</title>
<polygon fill="#8dd3c7" stroke="black" points="310.64,-149.8 307.64,-153.8 286.64,-153.8 283.64,-149.8 185.36,-149.8 185.36,-113.8 310.64,-113.8 310.64,-149.8"/>
<text text-anchor="middle" x="248" y="-127.6" font-family="Times,serif" font-size="14.00">TabScrollerModule</text>
</g>
<!-- FretComponent&#45;&gt;TabScrollerModule -->
<g id="edge1" class="edge">
<title>FretComponent&#45;&gt;TabScrollerModule</title>
<path fill="none" stroke="black" d="M320.11,-66.8C312.16,-66.8 306.54,-66.8 306.54,-66.8 306.54,-66.8 306.54,-103.69 306.54,-103.69"/>
<polygon fill="black" stroke="black" points="303.05,-103.69 306.54,-113.69 310.05,-103.69 303.05,-103.69"/>
</g>
<!-- NoteComponent -->
<g id="node2" class="node">
<title>NoteComponent</title>
<polygon fill="#ffffb3" stroke="black" points="302.05,-84.8 193.95,-84.8 193.95,-48.8 302.05,-48.8 302.05,-84.8"/>
<text text-anchor="middle" x="248" y="-62.6" font-family="Times,serif" font-size="14.00">NoteComponent</text>
</g>
<!-- NoteComponent&#45;&gt;TabScrollerModule -->
<g id="edge2" class="edge">
<title>NoteComponent&#45;&gt;TabScrollerModule</title>
<path fill="none" stroke="black" d="M248,-84.91C248,-84.91 248,-103.79 248,-103.79"/>
<polygon fill="black" stroke="black" points="244.5,-103.79 248,-113.79 251.5,-103.79 244.5,-103.79"/>
</g>
<!-- TabScrollerComponent -->
<g id="node3" class="node">
<title>TabScrollerComponent</title>
<polygon fill="#ffffb3" stroke="black" points="175.91,-84.8 28.09,-84.8 28.09,-48.8 175.91,-48.8 175.91,-84.8"/>
<text text-anchor="middle" x="102" y="-62.6" font-family="Times,serif" font-size="14.00">TabScrollerComponent</text>
</g>
<!-- TabScrollerComponent&#45;&gt;TabScrollerModule -->
<g id="edge3" class="edge">
<title>TabScrollerComponent&#45;&gt;TabScrollerModule</title>
<path fill="none" stroke="black" d="M175.79,-66.8C183.99,-66.8 189.46,-66.8 189.46,-66.8 189.46,-66.8 189.46,-103.69 189.46,-103.69"/>
<polygon fill="black" stroke="black" points="185.96,-103.69 189.46,-113.69 192.96,-103.69 185.96,-103.69"/>
</g>
<!-- FretComponent  -->
<g id="node5" class="node">
<title>FretComponent </title>
<polygon fill="#fb8072" stroke="black" points="429.88,-214.8 322.12,-214.8 322.12,-178.8 429.88,-178.8 429.88,-214.8"/>
<text text-anchor="middle" x="376" y="-192.6" font-family="Times,serif" font-size="14.00">FretComponent </text>
</g>
<!-- TabScrollerModule&#45;&gt;FretComponent  -->
<g id="edge4" class="edge">
<title>TabScrollerModule&#45;&gt;FretComponent </title>
<path fill="none" stroke="black" stroke-dasharray="5,2" d="M310.93,-131.8C342.09,-131.8 373.12,-131.8 373.12,-131.8 373.12,-131.8 373.12,-168.69 373.12,-168.69"/>
<polygon fill="black" stroke="black" points="369.63,-168.69 373.12,-178.69 376.63,-168.69 369.63,-168.69"/>
</g>
<!-- NoteComponent  -->
<g id="node6" class="node">
<title>NoteComponent </title>
<polygon fill="#fb8072" stroke="black" points="304.04,-214.8 191.96,-214.8 191.96,-178.8 304.04,-178.8 304.04,-214.8"/>
<text text-anchor="middle" x="248" y="-192.6" font-family="Times,serif" font-size="14.00">NoteComponent </text>
</g>
<!-- TabScrollerModule&#45;&gt;NoteComponent  -->
<g id="edge5" class="edge">
<title>TabScrollerModule&#45;&gt;NoteComponent </title>
<path fill="none" stroke="black" stroke-dasharray="5,2" d="M248,-149.91C248,-149.91 248,-168.79 248,-168.79"/>
<polygon fill="black" stroke="black" points="244.5,-168.79 248,-178.79 251.5,-168.79 244.5,-168.79"/>
</g>
<!-- TabScrollerComponent  -->
<g id="node7" class="node">
<title>TabScrollerComponent </title>
<polygon fill="#fb8072" stroke="black" points="174.41,-214.8 23.59,-214.8 23.59,-178.8 174.41,-178.8 174.41,-214.8"/>
<text text-anchor="middle" x="99" y="-192.6" font-family="Times,serif" font-size="14.00">TabScrollerComponent </text>
</g>
<!-- TabScrollerModule&#45;&gt;TabScrollerComponent  -->
<g id="edge6" class="edge">
<title>TabScrollerModule&#45;&gt;TabScrollerComponent </title>
<path fill="none" stroke="black" stroke-dasharray="5,2" d="M184.97,-131.8C145.23,-131.8 101.38,-131.8 101.38,-131.8 101.38,-131.8 101.38,-168.69 101.38,-168.69"/>
<polygon fill="black" stroke="black" points="97.88,-168.69 101.38,-178.69 104.88,-168.69 97.88,-168.69"/>
</g>
</g>
</svg>
